<?xml version="1.0" encoding="utf-8"?>
<!-- Generator: Adobe Illustrator 16.0.0, SVG Export Plug-In . SVG Version: 6.00 Build 0)  -->
<!DOCTYPE svg PUBLIC "-//W3C//DTD SVG 1.1//EN" "http://www.w3.org/Graphics/SVG/1.1/DTD/svg11.dtd">
<svg version="1.1" id="Layer_1" xmlns="http://www.w3.org/2000/svg" xmlns:xlink="http://www.w3.org/1999/xlink" x="0px" y="0px"
	 width="2308px" height="790.915px" viewBox="0 0 2308 790.915" enable-background="new 0 0 2308 790.915" xml:space="preserve">
<path fill="none" stroke="#000000" stroke-miterlimit="10" d="M847.592,953.874"/>
<g id="Layer_2">
	<g>
		<g>
			<g id="XMLID_2_">
				<g>
					<polygon fill="#63C192" points="1090.044,805.298 1086.236,805.298 1086.479,650.025 1261.938,683.435 					"/>
					<polygon fill="#6BD19E" points="1256.658,805.298 1090.044,805.298 1261.938,683.435 1448.955,740.791 					"/>
					<polygon fill="#4A8461" points="1547.959,805.298 1256.658,805.298 1449.422,740.937 1448.955,740.791 1449.268,740.687 
						1449.422,740.734 1557.564,760.951 1557.564,760.958 					"/>
					<polygon fill="#6BD19E" points="1744.961,805.298 1547.959,805.298 1557.58,760.958 1706.734,703.32 1829.17,716.076 
						1744.961,805.095 1745.154,805.095 					"/>
					<polygon fill="#6BD19E" points="1449.422,740.937 1256.658,805.298 1448.955,740.791 					"/>
					<polygon fill="#4A8461" points="1547.959,805.298 1557.564,760.958 1557.58,760.958 					"/>
					<polygon fill="#6BD19E" points="1745.154,805.095 1744.961,805.095 1829.17,716.076 					"/>
					<polygon fill="#45AD7B" points="1939.734,805.095 1745.154,805.095 1829.17,716.076 2039.172,776.587 					"/>
					<polygon fill="#63C192" points="2077.086,805.095 1939.734,805.095 2039.535,776.685 2039.881,776.789 2040.071,776.732 					
						"/>
					<polygon fill="#45AD7B" points="2153.646,805.095 2077.086,805.095 2040.261,776.677 2165.605,740.75 					"/>
					<polygon fill="#63C192" points="2248.099,805.095 2153.646,805.095 2165.621,740.742 2165.654,740.734 2285.754,650.916 					
						"/>
					<polygon fill="#45AD7B" points="2259.52,805.095 2248.099,805.095 2285.789,650.898 2285.842,650.851 2324.173,748.306 					
						"/>
					<polygon fill="#6BD19E" points="2640.357,805.095 2259.52,805.095 2324.207,748.378 2324.293,748.607 2324.604,748.458 					
						"/>
					<polygon fill="#45AD7B" points="2811.248,805.095 2640.357,805.095 2324.916,748.314 2384.791,719.953 2668.287,676.705 
						2668.392,676.712 2811.248,802.531 					"/>
					<polygon fill="#63C192" points="2811.248,802.531 2668.807,676.73 2810.867,682.326 2810.867,682.31 2811.248,682.326 					"/>
					<polygon fill="#6BD19E" points="2165.259,740.548 2040.071,776.531 2039.881,776.384 2039.535,776.482 1829.17,716.076 
						1918.102,621.638 					"/>
					<polygon fill="#45AD7B" points="1557.58,760.958 1557.564,760.958 1557.564,760.951 					"/>
					<polygon fill="#4A8461" points="1557.564,760.951 1449.422,740.734 1449.268,740.687 1449.422,740.636 					"/>
					<polygon fill="#45AD7B" points="1557.564,760.951 1449.422,740.636 1449.268,740.687 1261.938,683.435 1420.575,671.074 					
						"/>
					<polygon fill="#6BD19E" points="1557.58,760.91 1557.564,760.951 1420.575,671.074 1447.019,558.716 1622.476,621.08 
						1557.616,760.902 					"/>
					<polygon fill="#45AD7B" points="1557.616,760.902 1622.476,621.08 1706.734,703.32 					"/>
					<polygon fill="#5CBC88" points="2324.604,748.257 2324.293,748.201 2324.26,748.226 2285.842,650.671 2285.842,650.648 
						2285.822,650.593 2285.842,650.552 2285.822,650.56 2283.434,583.439 2321.889,511.531 2384.791,719.953 					"/>
					<polygon fill="#6BD19E" points="2165.639,740.646 2165.621,740.605 2165.654,740.435 2165.588,740.451 2121.199,558.716 
						2283.434,583.439 2285.822,650.56 2165.654,740.533 					"/>
					<polygon fill="#45AD7B" points="2165.588,740.451 2165.259,740.548 1918.102,621.638 1939.734,548.605 2121.199,558.716 					
						"/>
					<polygon fill="#45AD7B" points="2667.995,676.697 2384.791,719.953 2506.969,662.087 					"/>
					<polygon fill="#6BD19E" points="2384.791,719.953 2283.434,583.439 2375.967,468.453 2506.969,662.087 					"/>
					<polygon fill="#63C192" points="1829.17,716.076 1706.734,703.32 1918.102,621.638 					"/>
					<polygon fill="#45AD7B" points="1918.102,621.638 1706.734,703.32 1725.34,421.982 1865.218,512.654 					"/>
					<polygon fill="#5CBC88" points="1420.575,671.074 1261.938,683.435 1447.019,558.716 					"/>
					<polygon fill="#6BD19E" points="1261.938,683.435 1086.479,650.025 1086.479,535.5 1238.316,492.794 					"/>
					<polygon fill="#6BD19E" points="1261.938,683.435 1238.316,492.794 1238.506,492.746 					"/>
					<polygon fill="#63C192" points="1261.938,683.435 1238.506,492.746 1238.316,492.794 1238.316,492.746 1374.905,454.23 
						1447.019,558.716 					"/>
					<polygon fill="#6BD19E" points="2810.867,682.31 2668.773,676.697 2668.807,676.73 2668.392,676.712 2668.374,676.697 
						2668.287,676.705 2667.995,676.697 2651.173,518.277 2810.867,596.203 					"/>
					<polygon fill="#6BD19E" points="2668.392,676.712 2668.287,676.705 2668.374,676.697 					"/>
					<polygon fill="#6BD19E" points="2667.995,676.697 2506.969,662.087 2651.173,518.277 					"/>
					<polygon fill="#63C192" points="2506.969,662.087 2375.967,468.453 2651.173,518.269 2651.173,518.277 					"/>
					<polygon fill="#63C192" points="1918.102,621.638 1865.218,512.654 1939.734,548.605 					"/>
					<polygon fill="#63C192" points="1622.476,621.08 1447.019,558.716 1723.418,401.019 					"/>
					<polygon fill="#5CBC88" points="2810.867,596.203 2651.173,518.277 2651.173,518.269 2811.248,422.828 					"/>
					<polygon fill="#5CBC88" points="2283.434,583.439 2121.199,558.716 2086.346,416.031 					"/>
					<polygon fill="#45AD7B" points="2283.434,583.439 2086.346,416.031 2375.967,468.453 2283.434,583.439 					"/>
					<polygon fill="#63C192" points="2121.199,558.716 1939.734,548.605 2086.346,416.031 					"/>
					<polygon fill="#5CBC88" points="1447.019,558.716 1374.905,454.23 1485.47,335.135 					"/>
					<polygon fill="#45AD7B" points="1447.019,558.716 1485.47,335.135 1723.418,401.019 					"/>
					<polygon fill="#45AD7B" points="1939.734,548.605 1823.876,501.753 1725.34,421.982 2093.561,278.953 2086.346,416.031 					
						"/>
					<polygon fill="#5CBC88" points="1237.536,492.746 1086.479,535.5 1085.908,448.964 					"/>
					<polygon fill="#6BD19E" points="2651.173,518.269 2375.967,468.453 2257.287,324.013 2391.596,360.975 					"/>
					<polygon fill="#45AD7B" points="2651.173,518.269 2391.596,360.975 2443.491,316.303 2811.248,413.039 2811.248,422.287 					
						"/>
					<polygon fill="#5CBC88" points="2651.173,518.269 2811.248,422.287 2811.248,422.828 					"/>
					<polygon fill="#45AD7B" points="1374.905,454.23 1237.934,492.746 1085.908,448.964 1085.908,420.14 1194.256,365.472 					"/>
					<polygon fill="#5CBC88" points="2375.967,468.453 2086.346,416.031 2257.287,324.013 					"/>
					<polygon fill="#6BD19E" points="1374.905,454.23 1194.636,365.472 1254.703,267.206 1254.737,267.158 1485.47,335.135 					"/>
					<polygon fill="#6ABF88" points="1725.34,421.982 1848.396,293.563 1999.82,162.664 2093.561,278.953 					"/>
					<polygon fill="#63C192" points="1085.908,420.14 1085.908,331.56 1193.873,365.472 					"/>
					<polygon fill="#63C192" points="2086.346,416.031 2093.561,278.953 2257.287,324.013 					"/>
					<polygon fill="#63C192" points="2811.248,413.039 2443.578,316.221 2443.805,316.027 2443.805,316.003 2811.248,308.164 					
						"/>
					<polygon fill="#6BD19E" points="1723.418,401.019 1485.47,335.135 1473.442,190.193 1579.177,103.689 1579.213,103.723 
						1579.229,103.723 					"/>
					<polygon fill="#5CBC88" points="1194.256,365.472 1085.908,331.56 1085.908,306.434 1254.341,267.158 1254.737,267.158 
						1254.703,267.206 					"/>
					<polygon fill="#63C192" points="2391.596,360.975 2257.287,324.013 2184.899,221.653 2314.689,125.022 					"/>
					<polygon fill="#5CBC88" points="2391.596,360.975 2314.689,125.022 2532.341,182.33 2445.195,313.221 					"/>
					<polygon fill="#5CBC88" points="2391.596,360.975 2442.455,316.027 2443.491,316.295 2443.491,316.303 					"/>
					<polygon fill="#45AD7B" points="1485.47,335.135 1254.737,267.158 1328.856,145.246 					"/>
					<polygon fill="#45AD7B" points="1485.47,335.135 1328.856,145.246 1473.442,190.193 					"/>
					<polygon fill="#45AD7B" points="2257.287,324.013 2093.561,278.953 1999.82,162.664 2184.899,221.653 					"/>
					<polygon fill="#5CBC88" points="2443.491,316.295 2442.455,316.027 2443.805,315.996 2443.805,316.003 2442.836,316.027 
						2443.578,316.221 					"/>
					<polygon fill="#5CBC88" points="2443.578,316.221 2442.836,316.027 2443.805,316.003 2443.805,316.027 					"/>
					<polygon fill="#5CBC88" points="2443.805,315.996 2442.455,316.027 2470.229,182.33 					"/>
					<polygon fill="#45AD7B" points="2811.248,308.164 2443.805,315.996 2627.527,212.828 2811.248,109.66 					"/>
					<polygon fill="#63C192" points="1254.341,267.158 1085.908,306.434 1085.908,81.08 					"/>
					<polygon fill="#6BD19E" points="1848.396,293.563 1725.34,109.356 1889.064,103.723 					"/>
					<polygon fill="#45AD7B" points="1848.396,293.563 1889.064,103.723 1889.342,103.723 1889.706,103.908 1889.706,103.918 					
						"/>
					<polygon fill="#45AD7B" points="1848.396,293.563 1889.706,103.918 1944.461,133.08 1999.82,162.664 					"/>
					<polygon fill="#6BD19E" points="1254.737,267.158 1254.341,267.158 1085.908,81.08 1085.908,80.117 1086.772,81.08 
						1086.772,78.531 1328.856,145.246 					"/>
					<polygon fill="#45AD7B" points="2178.333,232.778 2163.631,162.744 2162.8,160.432 2117.408,33.877 2125.543,34.524 
						2126.891,34.629 2246.428,40.388 2314.689,125.022 					"/>
					<polygon fill="#5CBC88" points="2184.674,221.427 1999.82,164.111 1944.461,133.08 1889.724,103.82 1889.739,103.723 
						1889.532,103.723 1889.307,103.602 1889.29,103.594 1889.254,103.472 1889.254,103.455 2030.5,32.778 2117.115,33.868 
						2162.8,160.432 2163.631,162.744 					"/>
					<polygon fill="#63C192" points="1473.442,190.193 1328.856,145.246 1086.772,78.531 1086.772,78.523 1086.772,78.289 
						1085.908,78.047 1085.908,26.903 1362.5,49.547 					"/>
					<polygon fill="#45AD7B" points="1473.442,190.193 1362.5,49.547 1579.177,103.666 1579.177,103.689 					"/>
					<polygon fill="#63C192" points="2811.248,109.66 2443.805,315.996 2655.671,-3.87 2811.248,-3.87 					"/>
					<polygon fill="#6BD19E" points="2532.341,182.33 2314.689,125.022 2242.75,41.028 2467.514,-3.87 2655.671,-3.87 					"/>
					<polygon fill="#45AD7B" points="2162.8,160.432 2117.115,33.868 2117.148,33.86 2117.408,33.877 					"/>
					<polygon fill="#45AD7B" points="1944.461,133.08 1889.706,103.918 1889.706,103.908 1889.724,103.82 					"/>
					<polygon fill="#45AD7B" points="1889.706,103.908 1889.342,103.723 1889.445,103.723 					"/>
					<polygon fill="#45AD7B" points="1889.706,103.908 1889.445,103.723 1889.532,103.723 1889.724,103.82 					"/>
					<polygon fill="#45AD7B" points="1889.724,103.82 1889.532,103.723 1889.739,103.723 					"/>
					<polygon fill="#6BD19E" points="1889.064,103.723 1579.264,103.723 1889.116,103.496 					"/>
					<polygon fill="#45AD7B" points="1889.342,103.723 1889.064,103.723 1889.116,103.496 1889.152,103.512 1889.307,103.634 					
						"/>
					<polygon fill="#45AD7B" points="1889.445,103.723 1889.342,103.723 1889.307,103.634 					"/>
					<polygon fill="#45AD7B" points="1889.532,103.723 1889.445,103.723 1889.307,103.634 1889.307,103.602 					"/>
					<polygon fill="#63C192" points="1889.116,103.496 1579.264,103.723 1579.213,103.675 1579.177,103.666 1536.052,34.612 
						1888.77,103.375 1889.064,103.432 1889.064,103.439 1889.029,103.447 					"/>
					<polygon fill="#45AD7B" points="1579.177,103.666 1362.5,49.547 1536.052,34.612 					"/>
					<polygon fill="#45AD7B" points="1889.307,103.634 1889.152,103.512 1889.29,103.594 1889.307,103.602 					"/>
					<polygon fill="#63C192" points="1889.29,103.594 1889.152,103.512 1889.116,103.496 1889.22,103.465 1889.254,103.472 					"/>
					<polygon fill="#6BD19E" points="1889.22,103.465 1889.116,103.496 1889.133,103.447 					"/>
					<polygon fill="#63C192" points="1889.116,103.496 1889.029,103.447 1889.064,103.439 1889.133,103.447 					"/>
					<polygon fill="#45AD7B" points="1889.254,103.472 1889.22,103.465 1889.254,103.455 					"/>
					<polygon fill="#5CBC88" points="1889.254,103.455 1889.22,103.465 1889.133,103.447 1889.133,103.416 1889.271,103.375 					
						"/>
					<polygon fill="#6BD19E" points="1889.254,103.455 1889.271,103.375 2069.541,48.381 					"/>
					<polygon fill="#5CBC88" points="1889.133,103.447 1889.064,103.439 1889.064,103.432 1889.133,103.416 					"/>
					<polygon fill="#45AD7B" points="1889.133,103.416 1889.064,103.432 1888.77,103.375 1536.071,34.605 1569.228,-3.87 
						1916.684,-3.87 					"/>
					<polygon fill="#45AD7B" points="1888.77,103.375 1536.052,34.612 1536.052,34.605 1536.071,34.605 					"/>
					<polygon fill="#6BD19E" points="2069.541,48.381 2042.966,56.488 1889.271,103.375 1916.684,-3.87 2130.128,-3.805 
						2117.078,33.853 					"/>
					<polygon fill="#63C192" points="1536.052,34.612 1362.5,49.547 1535.949,34.58 1536.052,34.605 					"/>
					<polygon fill="#63C192" points="1535.949,34.58 1362.5,49.547 1371.999,-3.87 1569.228,-3.87 1536.071,34.605 1536.052,34.605 
											"/>
					<polygon fill="#6BD19E" points="1362.5,49.547 1085.908,26.903 1085.908,-3.87 1371.999,-3.87 					"/>
					<polygon fill="#63C192" points="2244.689,43.988 2126.891,34.629 2125.543,34.524 2117.408,33.868 2117.373,33.788 
						2117.164,33.853 2117.096,33.845 2130.128,-3.805 2265.282,-3.805 					"/>
					<polygon fill="#63C192" points="2467.514,-3.87 2242.75,43.988 2265.575,-3.87 					"/>
					<polygon fill="#45AD7B" points="2125.543,34.524 2117.408,33.877 2117.408,33.868 					"/>
					<polygon fill="#45AD7B" points="2117.408,33.877 2117.148,33.86 2117.164,33.853 2117.408,33.868 					"/>
					<polygon fill="#63C192" points="2117.408,33.868 2117.164,33.853 2117.373,33.788 					"/>
					<polygon fill="#45AD7B" points="2117.115,33.868 2117.096,33.853 2117.148,33.86 					"/>
					<polygon fill="#45AD7B" points="2117.148,33.86 2117.096,33.853 2117.096,33.845 2117.164,33.853 					"/>
					<polygon fill="#6BD19E" points="2117.096,33.853 2117.078,33.853 2130.128,-3.805 2117.096,33.845 					"/>
				</g>
			</g>
		</g>
	</g>
</g>
<g>
	<g>
		<g>
			<g id="XMLID_1_">
				<g>
					<polygon fill="#63C192" points="4.136,804.994 0.328,804.994 0.571,649.72 176.03,683.13 					"/>
					<polygon fill="#6BD19E" points="170.75,804.994 4.136,804.994 176.03,683.13 363.047,740.487 					"/>
					<polygon fill="#4A8461" points="462.051,804.994 170.75,804.994 363.514,740.632 363.047,740.487 363.359,740.382 
						363.514,740.43 471.656,760.647 471.656,760.655 					"/>
					<polygon fill="#6BD19E" points="659.053,804.994 462.051,804.994 471.672,760.655 620.826,703.015 743.262,715.772 
						659.053,804.791 659.246,804.791 					"/>
					<polygon fill="#6BD19E" points="363.514,740.632 170.75,804.994 363.047,740.487 					"/>
					<polygon fill="#4A8461" points="462.051,804.994 471.656,760.655 471.672,760.655 					"/>
					<polygon fill="#6BD19E" points="659.246,804.791 659.053,804.791 743.262,715.772 					"/>
					<polygon fill="#45AD7B" points="853.826,804.791 659.246,804.791 743.262,715.772 953.264,776.283 					"/>
					<polygon fill="#63C192" points="991.178,804.791 853.826,804.791 953.627,776.381 953.973,776.485 954.163,776.428 					"/>
					<polygon fill="#45AD7B" points="1067.737,804.791 991.178,804.791 954.353,776.373 1079.697,740.446 					"/>
					<polygon fill="#63C192" points="1162.19,804.791 1067.737,804.791 1079.713,740.437 1079.746,740.43 1199.846,650.611 					"/>
					<polygon fill="#45AD7B" points="1173.611,804.791 1162.19,804.791 1199.881,650.594 1199.934,650.546 1238.265,748.002 					
						"/>
					<polygon fill="#6BD19E" points="1554.449,804.791 1173.611,804.791 1238.299,748.075 1238.385,748.302 1238.695,748.155 					
						"/>
					<polygon fill="#45AD7B" points="1725.34,804.791 1554.449,804.791 1239.008,748.01 1298.883,719.649 1582.379,676.401 
						1582.483,676.409 1725.34,802.227 					"/>
					<polygon fill="#63C192" points="1725.34,802.227 1582.898,676.426 1724.959,682.022 1724.959,682.005 1725.34,682.022 					"/>
					<polygon fill="#6BD19E" points="1079.351,740.245 954.163,776.227 953.973,776.081 953.627,776.178 743.262,715.772 
						832.193,621.334 					"/>
					<polygon fill="#45AD7B" points="471.672,760.655 471.656,760.655 471.656,760.647 					"/>
					<polygon fill="#4A8461" points="471.656,760.647 363.514,740.43 363.359,740.382 363.514,740.333 					"/>
					<polygon fill="#45AD7B" points="471.656,760.647 363.514,740.333 363.359,740.382 176.03,683.13 334.667,670.769 					"/>
					<polygon fill="#6BD19E" points="471.672,760.605 471.656,760.647 334.667,670.769 361.11,558.412 536.567,620.776 
						471.708,760.597 					"/>
					<polygon fill="#45AD7B" points="471.708,760.597 536.567,620.776 620.826,703.015 					"/>
					<polygon fill="#5CBC88" points="1238.695,747.954 1238.385,747.897 1238.352,747.922 1199.934,650.368 1199.934,650.343 
						1199.914,650.289 1199.934,650.248 1199.914,650.255 1197.525,583.135 1235.98,511.227 1298.883,719.649 					"/>
					<polygon fill="#6BD19E" points="1079.73,740.341 1079.713,740.3 1079.746,740.131 1079.68,740.146 1035.291,558.412 
						1197.525,583.135 1199.914,650.255 1079.746,740.228 					"/>
					<polygon fill="#45AD7B" points="1079.68,740.146 1079.351,740.245 832.193,621.334 853.826,548.301 1035.291,558.412 					"/>
					<polygon fill="#45AD7B" points="1582.087,676.392 1298.883,719.649 1421.061,661.783 					"/>
					<polygon fill="#6BD19E" points="1298.883,719.649 1197.525,583.135 1290.059,468.149 1421.061,661.783 					"/>
					<polygon fill="#63C192" points="743.262,715.772 620.826,703.015 832.193,621.334 					"/>
					<polygon fill="#45AD7B" points="832.193,621.334 620.826,703.015 536.567,620.776 779.31,512.35 					"/>
					<polygon fill="#5CBC88" points="334.667,670.769 176.03,683.13 361.11,558.412 					"/>
					<polygon fill="#6BD19E" points="176.03,683.13 0.571,649.72 0.571,535.196 152.408,492.49 					"/>
					<polygon fill="#6BD19E" points="176.03,683.13 152.408,492.49 152.598,492.441 					"/>
					<polygon fill="#63C192" points="176.03,683.13 152.598,492.441 152.408,492.49 152.408,492.441 288.997,453.926 
						361.11,558.412 					"/>
					<polygon fill="#6BD19E" points="1724.959,682.005 1582.865,676.392 1582.898,676.426 1582.483,676.409 1582.466,676.392 
						1582.379,676.401 1582.087,676.392 1565.265,517.972 1724.959,595.899 					"/>
					<polygon fill="#6BD19E" points="1582.483,676.409 1582.379,676.401 1582.466,676.392 					"/>
					<polygon fill="#6BD19E" points="1582.087,676.392 1421.061,661.783 1565.265,517.972 					"/>
					<polygon fill="#63C192" points="1421.061,661.783 1290.059,468.149 1565.265,517.964 1565.265,517.972 					"/>
					<polygon fill="#63C192" points="832.193,621.334 779.31,512.35 853.826,548.301 					"/>
					<polygon fill="#6BD19E" points="779.31,512.35 536.567,620.776 637.51,400.714 680.773,432.578 					"/>
					<polygon fill="#63C192" points="536.567,620.776 361.11,558.412 637.51,400.714 					"/>
					<polygon fill="#5CBC88" points="1724.959,595.899 1565.265,517.972 1565.265,517.964 1725.34,422.523 					"/>
					<polygon fill="#5CBC88" points="1197.525,583.135 1035.291,558.412 1000.438,415.727 					"/>
					<polygon fill="#45AD7B" points="1197.525,583.135 1000.438,415.727 1290.059,468.149 1197.525,583.135 					"/>
					<polygon fill="#63C192" points="1035.291,558.412 853.826,548.301 1000.438,415.727 					"/>
					<polygon fill="#5CBC88" points="361.11,558.412 285.001,448.661 399.562,334.831 					"/>
					<polygon fill="#45AD7B" points="361.11,558.412 399.562,334.831 637.51,400.714 					"/>
					<polygon fill="#45AD7B" points="853.826,548.301 779.31,512.35 680.773,432.578 1007.652,278.649 1000.438,415.727 					"/>
					<polygon fill="#5CBC88" points="151.628,492.441 0.571,535.196 0,448.661 					"/>
					<polygon fill="#6BD19E" points="1565.265,517.964 1290.059,468.149 1171.379,323.708 1305.688,360.67 					"/>
					<polygon fill="#45AD7B" points="1565.265,517.964 1305.688,360.67 1357.583,315.999 1725.34,412.734 1725.34,421.982 					"/>
					<polygon fill="#5CBC88" points="1565.265,517.964 1725.34,421.982 1725.34,422.523 					"/>
					<polygon fill="#45AD7B" points="288.997,453.926 152.025,492.441 0,448.661 0,419.836 96.334,360.39 					"/>
					<polygon fill="#5CBC88" points="1290.059,468.149 1000.438,415.727 1171.379,323.708 					"/>
					<polygon fill="#6BD19E" points="288.997,453.926 101.07,362.89 168.795,266.902 168.829,266.854 399.562,334.831 					"/>
					<polygon fill="#45AD7B" points="680.773,432.578 637.51,400.714 493.32,103.418 493.355,103.418 762.487,293.258 					"/>
					<polygon fill="#63C192" points="680.773,432.578 762.487,293.258 913.912,162.36 1007.652,278.649 					"/>
					<polygon fill="#63C192" points="0,419.836 0,331.255 107.965,360.39 75.814,381.448 					"/>
					<polygon fill="#63C192" points="1000.438,415.727 1007.652,278.649 1171.379,323.708 					"/>
					<polygon fill="#63C192" points="1725.34,421.982 1357.67,315.917 1357.896,315.724 1357.896,315.699 1848.396,293.563 					"/>
					<polygon fill="#6BD19E" points="637.51,400.714 399.562,334.831 387.534,189.889 493.269,103.386 493.305,103.418 
						493.32,103.418 					"/>
					<polygon fill="#5CBC88" points="106.174,365.167 0,331.255 0,306.129 168.829,266.854 168.795,266.902 141.916,310.597 					
						"/>
					<polygon fill="#63C192" points="1305.688,360.67 1171.379,323.708 1098.991,221.349 1228.781,124.718 					"/>
					<polygon fill="#5CBC88" points="1305.688,360.67 1228.781,124.718 1446.433,182.026 1366.387,315.308 					"/>
					<polygon fill="#5CBC88" points="1305.688,360.67 1356.547,315.724 1357.583,315.991 1357.583,315.999 					"/>
					<polygon fill="#45AD7B" points="399.562,334.831 168.829,266.854 242.948,144.942 					"/>
					<polygon fill="#45AD7B" points="399.562,334.831 223,131.778 387.534,189.889 					"/>
					<polygon fill="#45AD7B" points="1171.379,323.708 1007.652,278.649 907.75,156.028 1098.991,221.349 					"/>
					<polygon fill="#5CBC88" points="1357.583,315.991 1356.547,315.724 1357.896,315.691 1357.896,315.699 1356.928,315.724 
						1357.67,315.917 					"/>
					<polygon fill="#5CBC88" points="1357.67,315.917 1356.928,315.724 1357.896,315.699 1357.896,315.724 					"/>
					<polygon fill="#5CBC88" points="1357.896,315.691 1356.547,315.724 1384.321,182.026 					"/>
					<polygon fill="#45AD7B" points="1848.396,293.563 1357.896,315.691 1541.619,212.524 1725.34,109.356 					"/>
					<polygon fill="#63C192" points="168.433,266.854 92.001,294.445 0,306.129 0,80.776 					"/>
					<polygon fill="#6BD19E" points="762.487,293.258 493.355,103.418 803.156,103.418 					"/>
					<polygon fill="#45AD7B" points="762.487,293.258 803.156,103.418 803.434,103.418 803.798,103.604 803.798,103.613 					"/>
					<polygon fill="#45AD7B" points="762.487,293.258 803.798,103.613 858.553,132.775 913.912,162.36 					"/>
					<polygon fill="#6BD19E" points="168.829,266.854 168.433,266.854 0,80.776 0,79.813 0.864,80.776 0.864,78.228 
						242.948,144.942 					"/>
					<polygon fill="#45AD7B" points="1098.991,221.349 1077.723,162.44 1076.892,160.127 1031.5,33.573 1039.635,34.22 
						1040.982,34.325 1159.076,43.822 1228.781,124.718 					"/>
					<polygon fill="#5CBC88" points="1098.766,221.123 913.686,162.134 858.553,132.775 803.815,103.516 803.831,103.418 
						803.624,103.418 803.398,103.297 803.382,103.289 803.346,103.167 803.346,103.151 983.633,48.077 1031.207,33.564 
						1076.892,160.127 1077.723,162.44 					"/>
					<polygon fill="#63C192" points="387.534,189.889 242.948,144.942 0.864,78.228 0.864,78.22 0.864,77.984 0,77.742 0,26.599 
						276.592,49.242 					"/>
					<polygon fill="#45AD7B" points="387.534,189.889 276.592,49.242 493.269,103.362 493.269,103.386 					"/>
					<polygon fill="#63C192" points="1888.77,103.375 1357.896,315.691 1569.763,-4.174 1725.34,-4.174 					"/>
					<polygon fill="#6BD19E" points="1594.355,221.123 1228.781,124.718 1159.076,43.62 1381.605,-4.174 1569.763,-4.174 					"/>
					<polygon fill="#45AD7B" points="1076.892,160.127 1031.207,33.564 1031.24,33.556 1031.5,33.573 					"/>
					<polygon fill="#45AD7B" points="858.553,132.775 803.798,103.613 803.798,103.604 803.815,103.516 					"/>
					<polygon fill="#45AD7B" points="803.798,103.604 803.434,103.418 803.537,103.418 					"/>
					<polygon fill="#45AD7B" points="803.798,103.604 803.537,103.418 803.624,103.418 803.815,103.516 					"/>
					<polygon fill="#45AD7B" points="803.815,103.516 803.624,103.418 803.831,103.418 					"/>
					<polygon fill="#6BD19E" points="803.156,103.418 493.355,103.418 803.208,103.192 					"/>
					<polygon fill="#45AD7B" points="803.434,103.418 803.156,103.418 803.208,103.192 803.244,103.208 803.398,103.33 					"/>
					<polygon fill="#45AD7B" points="803.537,103.418 803.434,103.418 803.398,103.33 					"/>
					<polygon fill="#45AD7B" points="803.624,103.418 803.537,103.418 803.398,103.33 803.398,103.297 					"/>
					<polygon fill="#63C192" points="803.208,103.192 493.355,103.418 493.305,103.371 493.269,103.362 465.667,71.444 
						450.144,34.308 802.861,103.071 803.156,103.127 803.156,103.135 803.121,103.143 					"/>
					<polygon fill="#45AD7B" points="493.269,103.362 399.562,87.111 276.592,49.242 450.144,34.308 469.703,65.627 					"/>
					<polygon fill="#45AD7B" points="803.398,103.33 803.244,103.208 803.382,103.289 803.398,103.297 					"/>
					<polygon fill="#63C192" points="803.382,103.289 803.244,103.208 803.208,103.192 803.312,103.16 803.346,103.167 					"/>
					<polygon fill="#6BD19E" points="803.312,103.16 803.208,103.192 803.225,103.143 					"/>
					<polygon fill="#63C192" points="803.208,103.192 803.121,103.143 803.156,103.135 803.225,103.143 					"/>
					<polygon fill="#45AD7B" points="803.346,103.167 803.312,103.16 803.346,103.151 					"/>
					<polygon fill="#5CBC88" points="803.346,103.151 803.312,103.16 803.225,103.143 803.225,103.112 803.363,103.071 					"/>
					<polygon fill="#6BD19E" points="803.346,103.151 803.363,103.071 983.633,48.077 					"/>
					<polygon fill="#5CBC88" points="803.225,103.143 803.156,103.135 803.156,103.127 803.225,103.112 					"/>
					<polygon fill="#45AD7B" points="803.225,103.112 803.156,103.127 802.861,103.071 450.163,34.301 483.319,-4.174 
						830.775,-4.174 					"/>
					<polygon fill="#45AD7B" points="802.861,103.071 450.144,34.308 450.144,34.301 450.163,34.301 					"/>
					<polygon fill="#6BD19E" points="983.633,48.077 803.363,103.071 830.775,-4.174 1044.22,-4.109 1031.17,33.548 					"/>
					<polygon fill="#63C192" points="450.144,34.308 276.592,49.242 450.041,34.275 450.144,34.301 					"/>
					<polygon fill="#63C192" points="450.041,34.275 276.592,49.242 286.091,-4.174 483.319,-4.174 450.163,34.301 450.144,34.301 
											"/>
					<polygon fill="#6BD19E" points="276.592,49.242 0,26.599 0,-4.174 286.091,-4.174 					"/>
					<polygon fill="#63C192" points="1158.781,43.685 1040.982,34.325 1039.635,34.22 1031.5,33.564 1031.465,33.483 
						1031.256,33.548 1031.188,33.541 1044.22,-4.109 1179.374,-4.109 					"/>
					<polygon fill="#63C192" points="1381.605,-4.174 1159.076,43.418 1179.667,-4.174 					"/>
					<polygon fill="#45AD7B" points="1039.635,34.22 1031.5,33.573 1031.5,33.564 					"/>
					<polygon fill="#45AD7B" points="1031.5,33.573 1031.24,33.556 1031.256,33.548 1031.5,33.564 					"/>
					<polygon fill="#63C192" points="1031.5,33.564 1031.256,33.548 1031.465,33.483 					"/>
					<polygon fill="#45AD7B" points="1031.207,33.564 1031.188,33.548 1031.24,33.556 					"/>
					<polygon fill="#45AD7B" points="1031.24,33.556 1031.188,33.548 1031.188,33.541 1031.256,33.548 					"/>
					<polygon fill="#6BD19E" points="1031.188,33.548 1031.17,33.548 1044.22,-4.109 1031.188,33.541 					"/>
				</g>
			</g>
		</g>
	</g>
</g>
<linearGradient id="SVGID_1_" gradientUnits="userSpaceOnUse" x1="-148.1855" y1="399.2251" x2="2356.249" y2="399.2251" gradientTransform="matrix(1 0 0 1.0015 0 0.1452)">
	<stop  offset="0" style="stop-color:#CF84FF"/>
	<stop  offset="0.2368" style="stop-color:#E49EF5"/>
	<stop  offset="0.4804" style="stop-color:#F3B1ED"/>
	<stop  offset="0.7317" style="stop-color:#FCBCE8"/>
	<stop  offset="1" style="stop-color:#FFC0E7"/>
</linearGradient>
<rect x="-148.186" y="-161.149" opacity="0.6" fill="url(#SVGID_1_)" width="2504.435" height="1122.238"/>
</svg>
