<?xml version="1.0" encoding="utf-8"?>
<!-- Generator: Adobe Illustrator 16.0.0, SVG Export Plug-In . SVG Version: 6.00 Build 0)  -->
<!DOCTYPE svg PUBLIC "-//W3C//DTD SVG 1.1//EN" "http://www.w3.org/Graphics/SVG/1.1/DTD/svg11.dtd">
<svg version="1.1" id="Layer_1" xmlns="http://www.w3.org/2000/svg" xmlns:xlink="http://www.w3.org/1999/xlink" x="0px" y="0px"
	 width="1096px" height="780px" viewBox="0 0 1096 780" enable-background="new 0 0 1096 780" xml:space="preserve">
<g>
	<circle fill="#3B404B" cx="119.019" cy="-179.525" r="43.249"/>
	<circle fill="#3B404B" cx="232.651" cy="-179.525" r="43.249"/>
	<circle fill="#3B404B" cx="578.713" cy="-179.525" r="43.25"/>
	<path fill-rule="evenodd" clip-rule="evenodd" fill="#FFFFFF" d="M95.608-162.732v-33.58c0-3.654,2.963-6.624,6.617-6.624h33.58
		c3.654,0,6.624,2.969,6.624,6.624v33.58c0,3.654-2.97,6.617-6.624,6.617h-33.58C98.571-156.115,95.608-159.078,95.608-162.732z
		 M112.404-162.807l16.703-17.512l-16.703-15.925V-162.807z"/>
	<g>
		<path fill-rule="evenodd" clip-rule="evenodd" fill="#FFFFFF" d="M218.579-159.171v-21.693c-0.379-2.171,3.564-2.313,4.7-4.038
			c0.521-0.784,0.847-2.273,0.847-2.699c0.359-3.118,1.062-7.596,1.462-11.479c-0.048-3.632,2.995-6.764,5.877-6.791
			c2.875-0.034,4.511,3.044,4.559,6.676c-0.67,5.891-3.598,14.569-1.881,14.17c4.316,0.616,8.882-0.9,13.59,1.258h-2.165
			c-3.03,0-5.492,1.685-5.492,3.761l0,0c0,2.077,2.462,3.768,5.492,3.768l-5.263,0.223c-3.029,0-5.485,1.685-5.485,3.761v0.006
			c0,2.077,2.456,3.761,5.485,3.761v0.128c-3.029,0-5.485,1.684-5.485,3.761l0,0c0,2.077,2.456,3.768,5.485,3.768l4.228,0.251
			c-3.029,0-5.491,1.684-5.491,3.76v0.006c0,1.739,1.732,3.206,4.071,3.632h-19.176C220.622-153.308,218.2-156.114,218.579-159.171z
			"/>
		<path fill-rule="evenodd" clip-rule="evenodd" fill="#FFFFFF" d="M205.409-179.572v22.599c0,1.941,1.568,3.517,3.51,3.517h4.37
			c1.941,0,3.511-1.576,3.511-3.517v-22.599c0-1.934-1.569-3.51-3.511-3.51h-4.37C206.978-183.083,205.409-181.506,205.409-179.572z
			"/>
		<path fill-rule="evenodd" clip-rule="evenodd" fill="#FFFFFF" d="M236.667-172.301v0.006c0,1.786,2.122,3.24,4.733,3.24h13.758
			c2.612,0,4.735-1.454,4.735-3.24v-0.006c0-1.786-2.123-3.24-4.735-3.24H241.4C238.789-175.541,236.667-174.086,236.667-172.301z"
			/>
		<path fill-rule="evenodd" clip-rule="evenodd" fill="#FFFFFF" d="M236.478-164.542L236.478-164.542
			c0,1.792,2.123,3.247,4.733,3.247h13.752c2.618,0,4.734-1.454,4.734-3.247l0,0c0-1.793-2.116-3.247-4.734-3.247h-13.752
			C238.601-167.79,236.478-166.335,236.478-164.542z"/>
		<path fill-rule="evenodd" clip-rule="evenodd" fill="#FFFFFF" d="M240.508-156.683v0.007c0,1.786,2.117,3.24,4.734,3.24h7.137
			c2.611,0,4.735-1.455,4.735-3.24v-0.007c0-1.792-2.124-3.246-4.735-3.246h-7.137C242.625-159.929,240.508-158.476,240.508-156.683
			z"/>
		<path fill-rule="evenodd" clip-rule="evenodd" fill="#FFFFFF" d="M241.395-180.14v0.006c0,1.787,2.123,3.241,4.734,3.241h7.144
			c2.609,0,4.734-1.454,4.734-3.241v-0.006c0-1.793-2.125-3.247-4.734-3.247h-7.144C243.518-183.387,241.395-181.933,241.395-180.14
			z"/>
	</g>
	<g>
		<circle fill="#3B404B" cx="347.875" cy="-179.525" r="43.249"/>
		<path fill-rule="evenodd" clip-rule="evenodd" fill="#FFFFFF" d="M368.372-200.357v-4.408l-0.031,0.009l-0.007-2.157
			l-31.89,10.152l0.264,32.82c-1.811-0.804-4.047-1.284-6.473-1.284c-6.014,0-10.896,2.928-10.896,6.541
			c0,3.611,4.882,6.546,10.896,6.546c5.909,0,10.723-2.83,10.888-6.359v-0.105l0.007-0.082c0-0.076-0.007-0.159-0.007-0.249
			l-0.151-24.305l23.097-8.012l0.767-0.428l0.171,20.882c-1.809-0.805-4.053-1.285-6.472-1.285c-6.014,0-10.894,2.936-10.894,6.547
			c0,3.612,4.88,6.541,10.894,6.541c4.334,0,8.08-1.524,9.838-3.732v-29.261h0.038L368.372-200.357z M364.241-194.732l-23.337,7.853
			l0.075-7.853l23.262-7.727V-194.732z"/>
	</g>
	<g>
		<circle fill="#3B404B" cx="463.294" cy="-179.525" r="43.249"/>
		<g>
			<path fill-rule="evenodd" clip-rule="evenodd" fill="#FFFFFF" d="M435.177-198.357v29.2c0,1.629,1.333,2.954,2.962,2.954h50.311
				c1.637,0,2.963-1.325,2.963-2.954v-29.2c0-1.629-1.326-2.962-2.963-2.962h-50.311
				C436.51-201.319,435.177-199.986,435.177-198.357z"/>
			<path fill-rule="evenodd" clip-rule="evenodd" fill="#FFFFFF" d="M435.212-198.626v29.55c0,1.521,1.235,2.756,2.746,2.756h50.017
				c1.521,0,2.748-1.236,2.748-2.756v-29.55c0-1.512-1.227-2.748-2.748-2.748h-50.017
				C436.447-201.374,435.212-200.139,435.212-198.626z"/>
			<path fill-rule="evenodd" clip-rule="evenodd" fill="#FFFFFF" d="M447.696-158.831v0.967c0,0.108,0.089,0.188,0.196,0.188h30.157
				c0.107,0,0.189-0.08,0.189-0.188v-0.967c0-0.098-0.082-0.188-0.189-0.188h-30.157
				C447.785-159.019,447.696-158.929,447.696-158.831z"/>
			<path fill-rule="evenodd" clip-rule="evenodd" fill="#FFFFFF" d="M457.675-165.067v4.644c0,0.6,0.481,1.083,1.081,1.083h8.431
				c0.59,0,1.074-0.484,1.074-1.083v-4.644c0-0.591-0.484-1.074-1.074-1.074h-8.431
				C458.156-166.141,457.675-165.659,457.675-165.067z"/>
			<rect x="438.129" y="-198.877" fill-rule="evenodd" clip-rule="evenodd" fill="#3B404B" width="50.177" height="30.275"/>
		</g>
	</g>
	<g>
		<path fill-rule="evenodd" clip-rule="evenodd" fill="#FFFFFF" d="M549.43-188.688v28.952c0,3.151,2.557,5.706,5.707,5.706h47.154
			c3.15,0,5.707-2.555,5.707-5.706v-28.952c0-3.151-2.557-5.708-5.707-5.708h-47.154C551.986-194.396,549.43-191.839,549.43-188.688
			z"/>
		<g>
			<path fill-rule="evenodd" clip-rule="evenodd" fill="#FFFFFF" d="M567.584-203.801c-0.851,0.863-1.246,2.134-1.173,3.778
				l-0.002,3.22c0,0.864,0.7,1.564,1.564,1.564s1.565-0.7,1.565-1.564v-3.289c-0.033-0.777,0.066-1.303,0.273-1.512
				c0.116-0.119,0.464-0.313,1.475-0.282h15.346c0.631-0.023,1.047,0.062,1.231,0.24c0.194,0.188,0.305,0.656,0.3,1.281v3.837
				c0,0.864,0.7,1.564,1.564,1.564c0.865,0,1.564-0.701,1.564-1.564v-3.828c0.01-1.532-0.413-2.726-1.255-3.54
				c-0.828-0.8-1.995-1.176-3.468-1.118l-15.237-0.001C570.754-205.033,568.854-205.089,567.584-203.801z"/>
		</g>
	</g>
	<g>
		<circle fill="#3B404B" cx="694.895" cy="-179.525" r="43.25"/>
		<g>
			<path fill-rule="evenodd" clip-rule="evenodd" fill="#FFFFFF" d="M664.262-173.376v13.504c0,1.48,1.201,2.666,2.669,2.666h1.386
				c1.479,0,2.668-1.186,2.668-2.666v-13.504c0-1.469-1.188-2.669-2.668-2.669h-1.386
				C665.463-176.045,664.262-174.845,664.262-173.376z"/>
			<path fill-rule="evenodd" clip-rule="evenodd" fill="#FFFFFF" d="M674.224-184.667v24.805c0,1.47,1.201,2.656,2.668,2.656h1.387
				c1.479,0,2.667-1.186,2.667-2.656v-24.805c0-1.467-1.188-2.668-2.667-2.668h-1.387
				C675.425-187.334,674.224-186.133,674.224-184.667z"/>
			<path fill-rule="evenodd" clip-rule="evenodd" fill="#FFFFFF" d="M684.185-190.89v31.018c0,1.48,1.2,2.666,2.669,2.666h1.387
				c1.479,0,2.667-1.186,2.667-2.666v-31.018c0-1.479-1.188-2.664-2.667-2.664h-1.387
				C685.385-193.554,684.185-192.368,684.185-190.89z"/>
			<path fill-rule="evenodd" clip-rule="evenodd" fill="#FFFFFF" d="M694.648-184.501v24.64c0,1.47,1.199,2.656,2.667,2.656h1.388
				c1.479,0,2.667-1.186,2.667-2.656v-24.64c0-1.469-1.188-2.669-2.667-2.669h-1.388
				C695.848-187.171,694.648-185.971,694.648-184.501z"/>
			<path fill-rule="evenodd" clip-rule="evenodd" fill="#FFFFFF" d="M704.609-189.909v30.037c0,1.48,1.199,2.666,2.668,2.666h1.386
				c1.479,0,2.669-1.186,2.669-2.666v-30.037c0-1.468-1.189-2.667-2.669-2.667h-1.386
				C705.809-192.576,704.609-191.377,704.609-189.909z"/>
			<path fill-rule="evenodd" clip-rule="evenodd" fill="#FFFFFF" d="M714.571-203.18v43.308c0,1.48,1.198,2.666,2.668,2.666h1.386
				c1.479,0,2.669-1.186,2.669-2.666v-43.308c0-1.467-1.189-2.668-2.669-2.668h-1.386
				C715.77-205.848,714.571-204.647,714.571-203.18z"/>
		</g>
	</g>
	<circle fill="#3B404B" cx="99.18" cy="88.082" r="43.25"/>
	<g>
		<path fill-rule="evenodd" clip-rule="evenodd" fill="#FFFFFF" d="M72.919,106.138V85.84c-0.101-0.008,26.883-21.308,26.883-21.107
			l26.492,21.107v20.298c0,5.803-4.721,10.524-10.525,10.524h-9.562c0.029-0.201,0.051-0.4,0.051-0.602v-16.45
			c0-1.782-1.454-3.237-3.238-3.237h-6.625c-1.785,0-3.238,1.455-3.238,3.237v16.45c0,0.201,0.021,0.401,0.062,0.602h-9.784
			C77.629,116.663,72.919,111.941,72.919,106.138z"/>
		<polygon fill-rule="evenodd" clip-rule="evenodd" fill="#FFFFFF" points="64.769,89.981 99.671,62.296 133.812,89.589 
			135.224,87.354 99.671,59.5 63.136,87.886 		"/>
		<polygon fill-rule="evenodd" clip-rule="evenodd" fill="#FFFFFF" points="118.125,66.445 118.125,75.567 122.616,80.328 
			126.154,80.328 126.154,66.445 		"/>
	</g>
	<g>
		<circle fill="#3B404B" cx="835.748" cy="-179.525" r="43.25"/>
		<g>
			<path fill="none" d="M849.162-191.499v-15.289c0-1.785-1.455-3.237-3.245-3.237h-19.31c-1.784,0-3.236,1.452-3.236,3.237v15.289
				H849.162z"/>
			<path fill="none" d="M835.745-179.8c-2.382,0-4.32,1.834-4.32,4.081c0,1.612,0.993,3.005,2.429,3.669v6.518
				c0,1.037,0.841,1.87,1.877,1.87h0.126c1.036,0,1.868-0.833,1.868-1.87v-6.56c1.394-0.68,2.346-2.044,2.346-3.628
				C840.07-177.965,838.131-179.8,835.745-179.8z"/>
			<path fill="#FFFFFF" d="M852.601-191.385v-15.402c0-3.681-2.999-6.674-6.684-6.674h-19.31c-3.68,0-6.674,2.994-6.674,6.674
				v15.294c-3.047,0.047-5.507,2.532-5.507,5.59v28.353c0,3.087,2.507,5.594,5.594,5.594h31.455c3.087,0,5.594-2.506,5.594-5.594
				v-28.353C857.069-188.606,855.149-190.863,852.601-191.385z M826.607-210.024h19.31c1.79,0,3.245,1.452,3.245,3.237v15.289
				h-25.791v-15.289C823.371-208.573,824.823-210.024,826.607-210.024z M837.725-172.091v6.56c0,1.037-0.832,1.87-1.868,1.87h-0.126
				c-1.036,0-1.877-0.833-1.877-1.87v-6.518c-1.436-0.665-2.429-2.058-2.429-3.669c0-2.246,1.938-4.081,4.32-4.081
				c2.386,0,4.325,1.834,4.325,4.081C840.07-174.135,839.118-172.771,837.725-172.091z"/>
		</g>
	</g>
	<g>
		<circle fill="#3B404B" cx="950.684" cy="-179.525" r="43.25"/>
		<g>
			<g>
				<path fill-rule="evenodd" clip-rule="evenodd" fill="#FFFFFF" d="M931.122-157.292c-1.039-4.236,3.832-9.089,10.892-10.833
					c1.534-0.373,3.05-0.572,4.484-0.613v-0.009c5.168-0.139,9.356,1.833,10.177,5.139c0.406,1.661-0.088,3.414-1.276,5.048v0.009
					c-1.831,2.527-5.316,4.723-9.604,5.783C938.747-151.027,932.171-153.054,931.122-157.292z"/>
			</g>
		</g>
		<g>
			
				<line fill-rule="evenodd" clip-rule="evenodd" fill="#FFFFFF" enable-background="new    " x1="955.082" y1="-162.797" x2="955.082" y2="-212.388"/>
			<rect x="954.132" y="-212.388" fill-rule="evenodd" clip-rule="evenodd" fill="#FFFFFF" width="1.9" height="49.591"/>
		</g>
	</g>
	<g>
		<circle fill="#3B404B" cx="1161.103" cy="719.869" r="43.25"/>
		<g>
			<path fill-rule="evenodd" clip-rule="evenodd" fill="#FFFFFF" d="M1171.622,695.02c0,0-9.484,21.977-14.349,33.248
				c-3.482-5.428-7.096-11.062-7.096-11.062c-1.586-2.47-4.875-3.188-7.346-1.604c-2.472,1.587-3.188,4.876-1.604,7.347
				l12.492,19.471c1.063,1.654,2.949,2.586,4.908,2.426c1.959-0.159,3.669-1.387,4.448-3.192l18.307-42.421
				c1.163-2.695-0.079-5.825-2.774-6.988C1175.913,691.081,1172.783,692.324,1171.622,695.02z"/>
		</g>
	</g>
	<g>
		<circle fill="#3B404B" cx="1274.735" cy="719.869" r="43.25"/>
		<path fill-rule="evenodd" clip-rule="evenodd" fill="#FFFFFF" d="M1267.896,740.077c-3.026-3.277-2.843-8.411,0.404-11.46
			c3.253-3.049,8.349-2.865,11.373,0.403c3.027,3.277,2.845,8.409-0.402,11.46C1276.023,743.528,1270.922,743.346,1267.896,740.077z
			 M1256.81,723.668l-3.285-2.882c6.669-7.596,13.952-11.095,21.337-10.926c7.322,0.167,14.271,3.931,20.339,9.914l-3.063,3.118
			c-5.59-5.512-11.543-8.531-17.375-8.668C1268.983,714.096,1262.854,716.779,1256.81,723.668z M1244.394,713.677l-3.072-3.118
			c21.609-21.281,46.352-18.933,66.828-0.965l-2.882,3.285C1286.296,696.234,1264.162,694.197,1244.394,713.677z"/>
	</g>
	<g>
		<circle fill="#3B404B" cx="1389.958" cy="719.869" r="43.25"/>
		<g>
			<path fill-rule="evenodd" clip-rule="evenodd" fill="#FFFFFF" d="M1373.968,729.114c3.509-1.247,7.382,0.588,8.629,4.106
				c1.249,3.51-0.589,7.369-4.108,8.618c-3.508,1.247-7.368-0.589-8.616-4.097C1368.612,734.223,1370.461,730.361,1373.968,729.114z
				"/>
			<path fill-rule="evenodd" clip-rule="evenodd" fill="#FFFFFF" d="M1369.696,718.485c14.949,0.777,23.624,12.183,23.236,23.755
				l9.934-0.048c-0.188-12.041-7.792-32.501-33.123-33.349L1369.696,718.485z"/>
			<path fill-rule="evenodd" clip-rule="evenodd" fill="#FFFFFF" d="M1369.696,701.394c24.013-0.153,41.104,21.612,40.327,40.847
				l9.923-0.048c0.012-20.741-15.313-49.649-50.203-50.427L1369.696,701.394z"/>
		</g>
	</g>
	<g>
		<circle fill="#3B404B" cx="1505.378" cy="719.869" r="43.25"/>
		<path fill="#FFFFFF" d="M1516.533,688.109h-22.31c-3.842,0-6.956,3.115-6.956,6.955v49.609c0,3.841,3.114,6.954,6.956,6.954h22.31
			c3.841,0,6.956-3.113,6.956-6.954v-49.609C1523.489,691.225,1520.374,688.109,1516.533,688.109z M1500.602,691.085h9.555
			c0.303,0,0.55,0.538,0.55,1.203c0,0.667-0.247,1.207-0.55,1.207h-9.555c-0.305,0-0.551-0.54-0.551-1.207
			C1500.051,691.623,1500.297,691.085,1500.602,691.085z M1505.378,749.918c-1.625,0-2.944-1.32-2.944-2.946
			c0-1.627,1.319-2.945,2.944-2.945c1.627,0,2.945,1.318,2.945,2.945C1508.323,748.598,1507.005,749.918,1505.378,749.918z
			 M1520.979,741.996h-31.201v-44.254h31.201V741.996z"/>
	</g>
	<g>
		<circle fill="#3B404B" cx="1620.797" cy="719.869" r="43.25"/>
		<g>
			<g>
				<path fill="#FFFFFF" d="M1636.373,687.736c-1.898-0.662-3.896-0.676-5.834-0.15l-0.003,0.009l-0.055-0.02l-8.892,25.513
					l-13.522,38.801c-0.489,1.4,0.076,2.874,1.263,3.288c1.188,0.414,2.546-0.389,3.034-1.79l12.944-37.146
					c0.319,0.154,0.646,0.295,0.985,0.413c6.197,2.16,13.477-2.562,16.26-10.548
					C1645.336,698.119,1642.567,689.896,1636.373,687.736z M1639.762,705.133c-2.091,6-7.56,9.547-12.214,7.925
					c-0.715-0.248-1.366-0.605-1.951-1.05l7.339-21.064c0.737,0.016,1.47,0.142,2.183,0.389
					C1639.773,692.957,1641.853,699.135,1639.762,705.133z"/>
				<path fill="#FFFFFF" d="M1633.527,751.889l-13.521-38.801l-8.891-25.513l-0.057,0.02l-0.002-0.009
					c-1.939-0.525-3.937-0.512-5.834,0.15c-6.197,2.159-8.964,10.383-6.182,18.369s10.063,12.708,16.261,10.548
					c0.341-0.118,0.663-0.259,0.981-0.413l12.946,37.146c0.489,1.401,1.847,2.204,3.035,1.79
					C1633.45,754.763,1634.017,753.289,1633.527,751.889z M1614.049,713.058c-4.657,1.622-10.126-1.925-12.216-7.925
					c-2.092-5.998-0.012-12.176,4.643-13.801c0.714-0.247,1.446-0.373,2.183-0.389l7.341,21.064
					C1615.412,712.452,1614.762,712.81,1614.049,713.058z"/>
			</g>
			<circle fill="#3B404B" cx="1620.487" cy="721.765" r="1.359"/>
		</g>
	</g>
	<g>
		<circle fill="#3B404B" cx="1736.979" cy="719.869" r="43.25"/>
		<path fill="#FFFFFF" d="M1746.353,707.609c-7.762,0-14.075,6.313-14.075,14.074c0,7.762,6.313,14.074,14.075,14.074
			c7.761,0,14.074-6.313,14.074-14.074C1760.427,713.923,1754.113,707.609,1746.353,707.609z M1746.353,733.933
			c-6.753,0-12.247-5.496-12.247-12.249c0-3.271,1.273-6.346,3.587-8.66c2.313-2.313,5.39-3.586,8.66-3.586
			c3.271,0,6.348,1.273,8.66,3.586c2.313,2.314,3.587,5.39,3.587,8.66C1758.6,728.437,1753.106,733.933,1746.353,733.933z
			 M1746.353,710.551c-2.974,0-5.77,1.158-7.873,3.26c-2.103,2.104-3.261,4.899-3.261,7.873c0,6.139,4.995,11.134,11.134,11.134
			c6.14,0,11.133-4.995,11.133-11.134c0-2.974-1.156-5.77-3.26-7.873C1752.123,711.709,1749.327,710.551,1746.353,710.551z
			 M1762.891,702.191h-41.941v-3.369c0-0.201-0.215-0.363-0.48-0.363h-7.563c-0.266,0-0.48,0.162-0.48,0.363v3.369h-1.356
			c-1.82,0-3.296,1.476-3.296,3.295v32.498c0,1.819,1.476,3.294,3.296,3.294h51.821c1.819,0,3.294-1.475,3.294-3.294v-32.498
			C1766.185,703.667,1764.71,702.191,1762.891,702.191z M1713.484,735.785c0,0.398-0.345,0.722-0.77,0.722
			c-0.423,0-0.768-0.323-0.768-0.722v-28.203c0-0.396,0.345-0.719,0.768-0.719c0.425,0,0.77,0.322,0.77,0.719V735.785z
			 M1746.353,737.166c-8.537,0-15.482-6.945-15.482-15.482s6.945-15.482,15.482-15.482c8.536,0,15.481,6.945,15.481,15.482
			S1754.889,737.166,1746.353,737.166z"/>
	</g>
	<g>
		<circle fill="#3B404B" cx="1850.466" cy="719.869" r="43.25"/>
		<polygon fill="#FFFFFF" points="1879.612,719.299 1859.194,698.877 1859.194,707.167 1821.32,707.167 1821.32,731.426 
			1859.194,731.426 1859.194,739.717 		"/>
	</g>
	<g>
		<circle fill="#3B404B" cx="1966.473" cy="719.869" r="43.25"/>
		<g>
			<path fill="#FFFFFF" d="M1982.441,721.781v-5.657c0-1.396-1.133-2.524-2.527-2.524h-42.137c-1.396,0-2.526,1.129-2.526,2.524
				v24.024c0,1.394,1.131,2.525,2.526,2.525h42.137c1.395,0,2.527-1.132,2.527-2.525v-5.658l15.253,4.557v-10.911v-10.911
				L1982.441,721.781z"/>
			<g>
				<circle fill="#FFFFFF" cx="1946.929" cy="700.943" r="10.249"/>
				<circle fill="#FFFFFF" cx="1969.666" cy="700.943" r="10.249"/>
			</g>
		</g>
	</g>
	<g>
		<circle fill="#3B404B" cx="2081.408" cy="719.869" r="43.25"/>
		<g>
			<path fill-rule="evenodd" clip-rule="evenodd" fill="#FFFFFF" d="M2064.648,735.358l-3.462-3.455
				c-0.301-0.302-0.794-0.302-1.09,0l-0.484,0.479c-0.302,0.297-0.302,0.789,0,1.092l3.463,3.457c0.3,0.303,0.79,0.303,1.092,0
				l0.481-0.484C2064.95,736.147,2064.95,735.656,2064.648,735.358z"/>
			<path fill-rule="evenodd" clip-rule="evenodd" fill="#FFFFFF" d="M2067.19,730.041v6.148c0,0.533,0.436,0.969,0.971,0.969h0.859
				c0.536,0,0.974-0.436,0.974-0.969v-6.148c0-0.531-0.438-0.965-0.974-0.965h-0.859
				C2067.626,729.076,2067.19,729.51,2067.19,730.041z"/>
			<path fill-rule="evenodd" clip-rule="evenodd" fill="#FFFFFF" d="M2075.992,731.903l-3.459,3.455
				c-0.307,0.298-0.307,0.789,0,1.089l0.485,0.484c0.302,0.303,0.788,0.303,1.087,0l3.468-3.457c0.298-0.303,0.298-0.795,0-1.092
				l-0.487-0.479C2076.784,731.602,2076.295,731.602,2075.992,731.903z"/>
			<path fill-rule="evenodd" clip-rule="evenodd" fill="#FFFFFF" d="M2076.848,739.168h-15.585c-4.106,0-7.569,2.678-8.476,6.25
				h32.534C2084.413,741.846,2080.952,739.168,2076.848,739.168z"/>
			<path fill-rule="evenodd" clip-rule="evenodd" fill="#FFFFFF" d="M2114.893,703.911h-23.82v1.984h-14.31v-5.346h-16.151v17.196
				h16.151v-5.35h14.31v1.982h23.82c2.555,0,4.643-2.352,4.643-5.234C2119.535,706.264,2117.447,703.911,2114.893,703.911z"/>
			<g>
				<path fill-rule="evenodd" clip-rule="evenodd" fill="#FFFFFF" d="M2080.456,698.717c0,1.526-1.24,2.762-2.762,2.762h-18.466
					c-1.521,0-2.761-1.235-2.761-2.762v-1.38c0-1.528,1.239-2.76,2.761-2.76h18.466c1.521,0,2.762,1.231,2.762,2.76V698.717z"/>
				<path fill-rule="evenodd" clip-rule="evenodd" fill="#FFFFFF" d="M2080.456,720.96c0,1.526-1.24,2.759-2.762,2.759h-18.466
					c-1.521,0-2.761-1.232-2.761-2.759v-1.385c0-1.525,1.239-2.758,2.761-2.758h18.466c1.521,0,2.762,1.232,2.762,2.758V720.96z"/>
			</g>
		</g>
	</g>
	<g>
		<circle fill="#3B404B" cx="1161.103" cy="838.66" r="43.25"/>
		<g>
			<path fill-rule="evenodd" clip-rule="evenodd" fill="#FFFFFF" d="M1155.35,810.826h11.511c0.611,0,1.114,0.697,1.114,1.56v8.685
				c0,0.863-0.503,1.568-1.114,1.568h-11.511c-0.62,0-1.118-0.705-1.118-1.568v-8.685
				C1154.231,811.523,1154.729,810.826,1155.35,810.826z"/>
			<path fill-rule="evenodd" clip-rule="evenodd" fill="#FFFFFF" d="M1167.975,825.121h-13.743
				c-31.604,10.19,3.711,27.064,5.2,44.65h0.708v-23.503c-1.68-0.347-3.084-1.584-3.859-3.266c-0.29-0.548-0.479-1.154-0.558-1.805
				c-0.008-0.022-0.008-0.044-0.009-0.062c-0.025-0.195-0.05-0.385-0.05-0.585c0-0.012,0-0.026,0-0.034
				c-0.009-0.158-0.034-0.303-0.034-0.459c0-3.498,2.448-6.321,5.472-6.321c3.019,0,5.478,2.823,5.478,6.321
				c0,0.162-0.025,0.314-0.037,0.477c0,0.005,0,0.016,0,0.017c0,0.104-0.025,0.191-0.025,0.28c-0.016,0.131-0.016,0.266-0.033,0.395
				c-0.085,0.622-0.266,1.198-0.54,1.732c-0.764,1.699-2.177,2.956-3.871,3.31v23.503h0.694
				C1164.258,852.186,1199.582,835.312,1167.975,825.121z"/>
		</g>
	</g>
	<g>
		<circle fill="#3B404B" cx="1274.735" cy="838.66" r="43.25"/>
		<g>
			<polygon fill="#FFFFFF" points="1277.921,838.419 1271.158,844.958 1267.281,840.97 1274.036,834.427 			"/>
			<path fill="#FFFFFF" d="M1285.11,808.069c-9.581,0-17.353,7.746-17.353,17.304c0,9.563,7.771,17.311,17.353,17.311
				c9.578,0,17.35-7.747,17.35-17.311C1302.46,815.815,1294.688,808.069,1285.11,808.069z M1285.11,837.734
				c-6.842,0-12.392-5.531-12.392-12.361c0-6.826,5.55-12.36,12.392-12.36c6.843,0,12.392,5.534,12.392,12.36
				C1297.502,832.203,1291.953,837.734,1285.11,837.734z"/>
			<path fill="#FFFFFF" d="M1286.023,815.127v-0.014c-6.23,0.361-11.208,5.313-11.606,11.526c0,0-0.008,0.009-0.008,0.014
				c0,0,0.008,0.003,0.008,0.01c-0.008,0.013-0.008,0.026-0.008,0.04h0.018c0.023,0.484,0.42,0.871,0.909,0.871
				c0.491,0,0.888-0.387,0.915-0.871h0.015c0.358-5.213,4.53-9.372,9.755-9.736h0.003c0.512,0,0.921-0.412,0.921-0.918
				C1286.944,815.536,1286.535,815.127,1286.023,815.127z"/>
			<path fill="#FFFFFF" d="M1263.885,841.236l-15.387,14.899c-1.953,1.891-1.987,5.013-0.077,6.968
				c1.896,1.965,5.028,2.02,6.979,0.127l15.39-14.896L1263.885,841.236z"/>
		</g>
	</g>
	<g>
		<circle fill="#3B404B" cx="1389.958" cy="838.66" r="43.25"/>
		<g>
			<path fill="#FFFFFF" d="M1403.3,819.95c0,7.349-5.979,13.307-13.34,13.307c-7.368,0-13.348-5.958-13.348-13.307
				c0-7.353,5.979-13.313,13.348-13.313C1397.321,806.637,1403.3,812.598,1403.3,819.95z"/>
			<path fill="#FFFFFF" d="M1414.019,870.683h-0.783h-46.553h-0.783v-0.762v-24.894c0-5.492,4.573-9.955,10.192-9.955h4.058h0.448
				l0.229,0.385l9.134,15.437l9.127-15.437l0.225-0.385h0.457h4.043c5.633,0,10.207,4.463,10.207,9.955v24.894V870.683
				L1414.019,870.683z"/>
			<path fill="#FFFFFF" d="M1403.775,835.855h-4.054l-9.807,16.952l-9.804-16.952h-4.053c-5.204,0-9.418,4.201-9.418,9.393v25.435
				h46.548v-25.435C1413.188,840.057,1408.971,835.855,1403.775,835.855z"/>
			<polygon fill="#FFFFFF" points="1389.923,848.104 1382.825,835.855 1397.007,835.855 1389.923,848.104 			"/>
		</g>
	</g>
	<g>
		<circle fill="#3B404B" cx="1505.378" cy="838.66" r="43.25"/>
		<g>
			<rect x="1482.896" y="820.181" fill-rule="evenodd" clip-rule="evenodd" fill="#FFFFFF" width="44.947" height="46.979"/>
			<polygon fill-rule="evenodd" clip-rule="evenodd" fill="#FFFFFF" points="1530.57,817.418 1480.186,817.418 1505.381,804.038 
				1530.57,817.418 			"/>
			<g>
				<g>
					<rect x="1488.133" y="828.926" fill-rule="evenodd" clip-rule="evenodd" fill="#3B404B" width="4.421" height="6.702"/>
					<rect x="1495.65" y="828.926" fill-rule="evenodd" clip-rule="evenodd" fill="#3B404B" width="4.418" height="6.702"/>
					<rect x="1503.161" y="828.926" fill-rule="evenodd" clip-rule="evenodd" fill="#3B404B" width="4.419" height="6.702"/>
					<rect x="1510.674" y="828.926" fill-rule="evenodd" clip-rule="evenodd" fill="#3B404B" width="4.421" height="6.702"/>
					<rect x="1518.187" y="828.926" fill-rule="evenodd" clip-rule="evenodd" fill="#3B404B" width="4.422" height="6.702"/>
				</g>
				<g>
					<rect x="1488.133" y="840.32" fill-rule="evenodd" clip-rule="evenodd" fill="#3B404B" width="4.421" height="6.701"/>
					<rect x="1495.65" y="840.32" fill-rule="evenodd" clip-rule="evenodd" fill="#3B404B" width="4.418" height="6.701"/>
					<rect x="1503.161" y="840.32" fill-rule="evenodd" clip-rule="evenodd" fill="#3B404B" width="4.419" height="6.701"/>
					<rect x="1510.674" y="840.32" fill-rule="evenodd" clip-rule="evenodd" fill="#3B404B" width="4.421" height="6.701"/>
					<rect x="1518.187" y="840.32" fill-rule="evenodd" clip-rule="evenodd" fill="#3B404B" width="4.422" height="6.701"/>
				</g>
				<g>
					<rect x="1488.133" y="851.715" fill-rule="evenodd" clip-rule="evenodd" fill="#3B404B" width="4.421" height="6.7"/>
					<rect x="1495.65" y="851.715" fill-rule="evenodd" clip-rule="evenodd" fill="#3B404B" width="4.418" height="6.7"/>
					<rect x="1503.161" y="851.715" fill-rule="evenodd" clip-rule="evenodd" fill="#3B404B" width="4.419" height="6.7"/>
					<rect x="1510.674" y="851.715" fill-rule="evenodd" clip-rule="evenodd" fill="#3B404B" width="4.421" height="6.7"/>
					<rect x="1518.187" y="851.715" fill-rule="evenodd" clip-rule="evenodd" fill="#3B404B" width="4.422" height="6.7"/>
				</g>
			</g>
		</g>
	</g>
	<g>
		<circle fill="#3B404B" cx="1620.797" cy="838.66" r="43.25"/>
		<g>
			<polygon fill="#FFFFFF" points="1631.903,819.01 1632.611,813.816 1633.32,808.627 1630.152,812.801 1626.981,816.971 
				1629.444,817.99 			"/>
			<polygon fill="#FFFFFF" points="1638.575,824.755 1641.22,820.23 1643.862,815.707 1639.337,818.346 1634.811,820.988 
				1636.694,822.873 			"/>
			<polygon fill="#FFFFFF" points="1641.526,830.156 1642.543,832.617 1646.719,829.449 1650.891,826.278 1645.699,826.99 
				1640.506,827.697 			"/>
			<polygon fill="#FFFFFF" points="1643.199,836.074 1643.199,838.737 1643.199,841.401 1648.271,840.069 1653.337,838.737 
				1648.271,837.405 			"/>
			<polygon fill="#FFFFFF" points="1642.487,844.844 1641.468,847.305 1640.446,849.766 1645.64,850.475 1650.83,851.185 
				1646.66,848.015 			"/>
			<polygon fill="#FFFFFF" points="1638.469,852.674 1636.583,854.556 1634.701,856.44 1639.226,859.083 1643.752,861.725 
				1641.107,857.199 			"/>
			<polygon fill="#FFFFFF" points="1631.761,858.369 1629.3,859.387 1626.843,860.404 1630.009,864.579 1633.179,868.75 
				1632.471,863.562 			"/>
			<polygon fill="#FFFFFF" points="1618.06,861.063 1619.389,866.131 1620.72,871.201 1622.053,866.131 1623.386,861.063 
				1620.72,861.063 			"/>
			<polygon fill="#FFFFFF" points="1609.692,858.309 1608.983,863.502 1608.275,868.693 1611.444,864.519 1614.615,860.348 
				1612.152,859.33 			"/>
			<polygon fill="#FFFFFF" points="1603.018,852.564 1600.376,857.088 1597.735,861.615 1602.261,858.973 1606.785,856.332 
				1604.902,854.449 			"/>
			<polygon fill="#FFFFFF" points="1600.071,847.163 1599.051,844.703 1594.879,847.871 1590.703,851.041 1595.896,850.332 
				1601.089,849.625 			"/>
			<polygon fill="#FFFFFF" points="1598.396,841.246 1598.396,838.582 1598.396,835.919 1593.327,837.25 1588.259,838.582 
				1593.327,839.914 			"/>
			<polygon fill="#FFFFFF" points="1599.11,832.477 1600.128,830.014 1601.148,827.555 1595.957,826.846 1590.765,826.137 
				1594.938,829.307 			"/>
			<polygon fill="#FFFFFF" points="1603.128,824.646 1605.01,822.763 1606.895,820.882 1602.368,818.238 1597.845,815.598 
				1600.484,820.121 			"/>
			<polygon fill="#FFFFFF" points="1609.835,818.951 1612.297,817.933 1614.757,816.912 1611.586,812.74 1608.417,808.567 
				1609.126,813.759 			"/>
			<polygon fill="#FFFFFF" points="1623.538,816.258 1622.205,811.188 1620.876,806.119 1619.545,811.188 1618.21,816.258 
				1620.876,816.258 			"/>
			<path fill="#FFFFFF" d="M1620.903,820.518c-10.118,0-18.329,8.211-18.329,18.334c0,10.118,8.211,18.33,18.329,18.33
				c10.119,0,18.33-8.212,18.33-18.33C1639.233,828.729,1631.022,820.518,1620.903,820.518z"/>
		</g>
	</g>
	<g>
		<circle fill="#3B404B" cx="1736.979" cy="838.66" r="43.25"/>
		<g>
			<path fill-rule="evenodd" clip-rule="evenodd" fill="#FFFFFF" d="M1752.566,861.066h-14.264v-13.652h-2.647v13.652h-14.263
				c-0.621,0-1.121,0.505-1.121,1.124c0,0.615,0.5,1.118,1.121,1.118h31.174c0.619,0,1.124-0.503,1.124-1.118
				C1753.69,861.571,1753.186,861.066,1752.566,861.066z"/>
			<path fill-rule="evenodd" clip-rule="evenodd" fill="#FFFFFF" d="M1755.772,814.012h-37.583
				c-1.58,3.322-2.478,7.099-2.478,11.111c0,13.086,9.513,23.705,21.268,23.765c11.753-0.06,21.266-10.679,21.266-23.765
				C1758.245,821.11,1757.349,817.334,1755.772,814.012z M1722.604,820.201c-0.459,1.889-0.695,3.869-0.695,5.824
				c0,8.514,4.361,15.875,10.571,19.076c-7.85-2.328-13.667-10.404-13.667-19.979c0-2.755,0.486-5.487,1.419-8.018h33.494
				c0.37,0.996,0.65,2.042,0.878,3.096H1722.604z"/>
		</g>
	</g>
	<g>
		<circle fill="#3B404B" cx="1850.466" cy="838.66" r="43.249"/>
		<g>
			<path fill-rule="evenodd" clip-rule="evenodd" fill="#FFFFFF" d="M1850.47,807.008c-17.441,0-31.657,14.214-31.657,31.652
				c0,17.434,14.216,31.652,31.657,31.652c17.433,0,31.649-14.219,31.649-31.652C1882.119,821.222,1867.902,807.008,1850.47,807.008
				z M1850.47,851.321c-6.977,0-12.659-5.688-12.659-12.661s5.683-12.662,12.659-12.662c6.968,0,12.661,5.689,12.661,12.662
				S1857.438,851.321,1850.47,851.321z"/>
			<path fill-rule="evenodd" clip-rule="evenodd" fill="#FFFFFF" d="M1850.474,829.165c-5.245,0-9.504,4.258-9.504,9.497
				c0,5.24,4.259,9.494,9.504,9.494c5.239,0,9.488-4.254,9.488-9.494C1859.962,833.423,1855.713,829.165,1850.474,829.165
				L1850.474,829.165z M1847.301,838.662L1847.301,838.662c0-1.747,1.428-3.168,3.173-3.168c1.739,0,3.163,1.421,3.163,3.168
				c0,1.748-1.424,3.174-3.163,3.174C1848.729,841.836,1847.301,840.41,1847.301,838.662z"/>
		</g>
	</g>
	<g>
		<circle fill="#3B404B" cx="1966.473" cy="838.66" r="43.249"/>
		<g>
			<path fill="#FFFFFF" d="M1938.797,845.358c0,0-8.67-25.048,20.618-33.526c0-9.636,0-9.444,0-9.444l27.94,15.804l-27.94,19.173
				l-0.031-8.866l0.031-2.914C1959.415,825.584,1943.612,826.669,1938.797,845.358z"/>
			<path fill="#FFFFFF" d="M1994.146,831.962c0,0,8.674,25.05-20.622,33.528c0,9.635,0,9.442,0,9.442l-27.935-15.805l27.935-19.172
				l0.035,8.862l-0.035,2.918C1973.524,851.736,1989.329,850.652,1994.146,831.962z"/>
		</g>
	</g>
	<g>
		<g>
			<g>
				<path fill="#3B404B" d="M1645.784,1253.012c0.541,0,1.037,0.471,1.037,0.471l-8.904,19.021c-0.977,0-3.316,0.139-3.889,0.139
					c-0.539,0-1.037-0.471-1.037-0.471l-3.045-19.021c1.848,0,4.156-0.139,4.848-0.139c0.543,0,1.037,0.471,1.037,0.471l0.932,9.306
					c0.08,0.802,0.086,1.914,0.055,3.086c0.299-1.279,0.629-2.49,0.951-3.308l3.701-9.418c1.643,0,3.68-0.137,4.313-0.137H1645.784z
					"/>
			</g>
			<g>
				<path fill="#3B404B" d="M1654.963,1262.396c0,2.071-1.156,3.44-4.037,4.034l-3.023,0.624c0.232,1.303,1.051,1.939,2.41,1.939
					c1.666,0,2.779-1.257,2.779-1.257s0.85,0.474,0.85,1.446c0,1.726-2.646,3.598-5.725,3.598c-3.124,0-5.161-1.974-5.161-5.306
					c0-3.85,2.727-9.072,7.583-9.072C1653.297,1258.402,1654.963,1259.977,1654.963,1262.396L1654.963,1262.396z M1649.852,1264.386
					c0.645-0.203,0.838-0.735,0.838-1.344c0-0.573-0.186-1.43-0.85-1.43c-1.199,0-1.727,1.935-1.918,3.385L1649.852,1264.386z"/>
			</g>
			<g>
				<path fill="#3B404B" d="M1663.1,1258.402c2.449,0,4.291,1.298,4.291,2.983c0,2.107-2.553,2.878-2.553,2.878
					s-0.748-2.302-2.463-2.302c-1.162,0-1.832,1.176-1.832,3.683c0,2.31,0.607,3.349,2.102,3.349c1.533,0,2.477-1.044,2.477-1.044
					s0.852,0.473,0.852,1.419c0,1.651-2.543,3.412-5.502,3.412c-3.15,0-5.092-1.974-5.092-5.254c0-3.901,2.789-9.124,7.723-9.124
					H1663.1z"/>
			</g>
			<g>
				<path fill="#3B404B" d="M1674.869,1255.328c0.59,0,0.982,0.45,0.982,0.45l-0.461,2.901h3.072l-0.693,2.212
					c-0.225,0.712-0.578,1.105-1.299,1.105h-1.605l-0.895,5.652c-0.146,0.914,0.053,1.337,0.676,1.344
					c0.564,0.004,1.123-0.345,1.123-0.345s0.857,0.478,0.857,1.374c0,1.384-1.975,2.758-4.471,2.758c-2.65,0-3.719-1.621-3.27-4.457
					l1-6.326h-1.666l0.725-2.308c0.188-0.592,0.676-1.01,1.273-1.01h0.811l0.971-2.671
					C1673.203,1255.714,1674.322,1255.328,1674.869,1255.328L1674.869,1255.328z"/>
			</g>
			<g>
				<path fill="#3B404B" d="M1689.789,1262.396c0,2.071-1.154,3.44-4.035,4.034l-3.023,0.624c0.232,1.303,1.051,1.939,2.408,1.939
					c1.666,0,2.781-1.257,2.781-1.257s0.85,0.474,0.85,1.446c0,1.726-2.646,3.598-5.725,3.598c-3.123,0-5.16-1.974-5.16-5.306
					c0-3.85,2.727-9.072,7.582-9.072c2.658,0,4.324,1.574,4.324,3.993H1689.789z M1684.68,1264.386
					c0.645-0.203,0.838-0.735,0.838-1.344c0-0.573-0.186-1.43-0.85-1.43c-1.199,0-1.729,1.935-1.918,3.385L1684.68,1264.386z"/>
			</g>
			<g>
				<path fill="#3B404B" d="M1702.119,1262.396c0,2.071-1.156,3.44-4.035,4.034l-3.023,0.624c0.232,1.303,1.051,1.939,2.408,1.939
					c1.668,0,2.779-1.257,2.779-1.257s0.852,0.474,0.852,1.446c0,1.726-2.646,3.598-5.725,3.598c-3.123,0-5.162-1.974-5.162-5.306
					c0-3.85,2.729-9.072,7.582-9.072c2.66,0,4.326,1.574,4.326,3.993H1702.119z M1697.01,1264.386
					c0.645-0.203,0.838-0.735,0.838-1.344c0-0.573-0.188-1.43-0.85-1.43c-1.199,0-1.729,1.935-1.918,3.385L1697.01,1264.386z"/>
			</g>
			<g>
				<path fill="#3B404B" d="M1712.205,1267.56c0,0,1.039,0.96,1.039,2.548c0,2.118-1.793,2.673-3.297,2.673
					c-1.959,0-3.383-0.934-4.873-1.438c-0.416,0.479-0.822,0.959-1.213,1.438c0,0-2.207-0.056-2.207-1.56
					c0-1.834,3.057-4.979,6.35-8.544c-0.379-0.068-0.744-0.115-1.072-0.115c-1.873,0-2.598,0.936-2.598,0.936
					s-0.963-1.107-0.883-2.549c0.109-1.998,2.01-2.546,3.502-2.546c1.584,0,2.744,0.611,3.887,1.112l0.928-1.112
					c0,0,2.229,0.068,2.229,1.58c0,1.77-2.959,4.858-6.158,8.307c0.678,0.189,1.307,0.343,1.932,0.343
					C1711.43,1268.632,1712.205,1267.56,1712.205,1267.56L1712.205,1267.56z"/>
			</g>
			<g>
				<path fill="#3B404B" d="M1726.539,1271.561c-0.795,4.842-4.113,7.303-8.314,7.303c-2.682,0-4.684-1.409-4.684-3.042
					c0-1.077,0.896-1.576,0.896-1.576s0.912,0.83,2.709,0.83c1.688,0,3.973-0.719,4.375-3.264l0.314-1.981
					c-1.131,1.629-2.633,2.95-4.529,2.95c-2.133,0-3.082-1.744-2.52-5.288l0.605-3.836c0.373-2.35,0.477-4.267,0.477-4.267
					c1.516-0.28,3.516-0.987,4.217-0.987c0.541,0,1.045,0.452,1.045,0.452l-0.76,4.802l-0.703,4.43
					c-0.064,0.408,0.014,0.638,0.383,0.638c1.768,0,2.764-5.067,2.764-5.067c0.371-2.35,0.475-4.267,0.475-4.267
					c1.514-0.28,3.516-0.987,4.215-0.987c0.543,0,1.047,0.452,1.047,0.452l-0.762,4.802L1726.539,1271.561z"/>
			</g>
		</g>
		<g>
			<path fill="#3B404B" d="M1521.792,1259.179h4.755c1.072,0,1.89,0.082,2.452,0.246c0.756,0.223,1.403,0.618,1.942,1.187
				s0.949,1.265,1.23,2.087c0.281,0.824,0.422,1.839,0.422,3.046c0,1.061-0.132,1.975-0.396,2.742
				c-0.322,0.938-0.782,1.696-1.38,2.276c-0.451,0.439-1.061,0.782-1.828,1.028c-0.574,0.182-1.342,0.272-2.303,0.272h-4.896
				V1259.179z M1524.394,1261.358v8.534h1.942c0.727,0,1.251-0.041,1.573-0.123c0.422-0.105,0.771-0.284,1.05-0.536
				s0.506-0.666,0.682-1.244c0.176-0.576,0.264-1.363,0.264-2.359s-0.088-1.761-0.264-2.294s-0.422-0.949-0.738-1.248
				s-0.718-0.501-1.204-0.606c-0.363-0.082-1.075-0.123-2.136-0.123H1524.394z"/>
			<path fill="#3B404B" d="M1539.827,1269.093l2.461,0.413c-0.316,0.902-0.815,1.59-1.498,2.062s-1.537,0.707-2.563,0.707
				c-1.623,0-2.824-0.53-3.604-1.591c-0.615-0.85-0.923-1.922-0.923-3.217c0-1.547,0.404-2.758,1.213-3.634s1.831-1.314,3.067-1.314
				c1.389,0,2.484,0.459,3.287,1.375c0.803,0.918,1.187,2.322,1.151,4.215h-6.188c0.018,0.732,0.217,1.303,0.598,1.709
				c0.381,0.408,0.855,0.611,1.424,0.611c0.387,0,0.712-0.105,0.976-0.316S1539.692,1269.562,1539.827,1269.093z M1539.968,1266.597
				c-0.018-0.715-0.202-1.258-0.554-1.631c-0.352-0.371-0.779-0.558-1.283-0.558c-0.539,0-0.984,0.196-1.336,0.589
				s-0.524,0.926-0.519,1.6H1539.968z"/>
			<path fill="#3B404B" d="M1543.202,1269.4l2.479-0.378c0.105,0.48,0.319,0.846,0.642,1.094c0.322,0.25,0.773,0.374,1.354,0.374
				c0.639,0,1.119-0.117,1.441-0.352c0.217-0.164,0.325-0.384,0.325-0.659c0-0.188-0.059-0.343-0.176-0.466
				c-0.123-0.117-0.398-0.226-0.826-0.325c-1.992-0.439-3.255-0.841-3.788-1.204c-0.738-0.504-1.107-1.204-1.107-2.101
				c0-0.809,0.319-1.488,0.958-2.039s1.629-0.826,2.971-0.826c1.277,0,2.227,0.208,2.848,0.624s1.049,1.031,1.283,1.846
				l-2.329,0.431c-0.1-0.363-0.288-0.642-0.566-0.835s-0.676-0.29-1.191-0.29c-0.65,0-1.116,0.091-1.397,0.272
				c-0.188,0.129-0.281,0.296-0.281,0.501c0,0.176,0.082,0.325,0.246,0.448c0.223,0.164,0.992,0.396,2.308,0.694
				s2.233,0.665,2.755,1.099c0.516,0.439,0.773,1.052,0.773,1.837c0,0.855-0.357,1.591-1.072,2.206s-1.772,0.923-3.173,0.923
				c-1.271,0-2.277-0.258-3.019-0.773S1543.431,1270.285,1543.202,1269.4z"/>
			<path fill="#3B404B" d="M1553.724,1261.464v-2.285h2.47v2.285H1553.724z M1553.724,1272.063v-9.334h2.47v9.334H1553.724z"/>
			<path fill="#3B404B" d="M1558.136,1272.679l2.821,0.343c0.047,0.328,0.155,0.554,0.325,0.677
				c0.234,0.176,0.604,0.264,1.107,0.264c0.645,0,1.128-0.097,1.45-0.29c0.217-0.129,0.381-0.337,0.492-0.624
				c0.076-0.205,0.114-0.583,0.114-1.134v-1.362c-0.738,1.008-1.67,1.512-2.795,1.512c-1.254,0-2.247-0.53-2.979-1.591
				c-0.574-0.838-0.861-1.881-0.861-3.129c0-1.564,0.377-2.76,1.13-3.586s1.688-1.239,2.808-1.239c1.154,0,2.106,0.507,2.856,1.521
				v-1.31h2.312v8.376c0,1.102-0.091,1.925-0.272,2.47s-0.437,0.973-0.765,1.283s-0.766,0.554-1.313,0.729s-1.241,0.264-2.079,0.264
				c-1.582,0-2.704-0.271-3.366-0.813s-0.993-1.229-0.993-2.061C1558.127,1272.896,1558.13,1272.796,1558.136,1272.679z
				 M1560.342,1267.203c0,0.99,0.192,1.716,0.576,2.175c0.384,0.461,0.856,0.69,1.419,0.69c0.604,0,1.113-0.235,1.529-0.708
				c0.416-0.471,0.624-1.17,0.624-2.096c0-0.967-0.199-1.685-0.598-2.153s-0.902-0.703-1.512-0.703c-0.592,0-1.079,0.23-1.463,0.69
				S1560.342,1266.26,1560.342,1267.203z"/>
			<path fill="#3B404B" d="M1577.49,1272.063h-2.47v-4.764c0-1.008-0.053-1.659-0.158-1.955s-0.277-0.526-0.515-0.69
				s-0.522-0.246-0.856-0.246c-0.428,0-0.812,0.117-1.151,0.352s-0.573,0.545-0.699,0.932s-0.188,1.102-0.188,2.145v4.228h-2.47
				v-9.334h2.294v1.371c0.814-1.055,1.84-1.582,3.076-1.582c0.545,0,1.043,0.099,1.494,0.295s0.792,0.446,1.023,0.751
				s0.393,0.65,0.483,1.037s0.137,0.94,0.137,1.661V1272.063z"/>
			<path fill="#3B404B" d="M1585.04,1269.093l2.461,0.413c-0.316,0.902-0.816,1.59-1.499,2.062s-1.536,0.707-2.562,0.707
				c-1.623,0-2.824-0.53-3.604-1.591c-0.615-0.85-0.923-1.922-0.923-3.217c0-1.547,0.404-2.758,1.213-3.634s1.831-1.314,3.067-1.314
				c1.389,0,2.484,0.459,3.287,1.375c0.803,0.918,1.187,2.322,1.151,4.215h-6.188c0.018,0.732,0.217,1.303,0.598,1.709
				c0.381,0.408,0.855,0.611,1.424,0.611c0.387,0,0.712-0.105,0.976-0.316S1584.905,1269.562,1585.04,1269.093z M1585.181,1266.597
				c-0.018-0.715-0.202-1.258-0.554-1.631c-0.352-0.371-0.779-0.558-1.283-0.558c-0.539,0-0.984,0.196-1.336,0.589
				s-0.524,0.926-0.519,1.6H1585.181z"/>
			<path fill="#3B404B" d="M1597.846,1272.063h-2.294v-1.371c-0.381,0.533-0.83,0.931-1.349,1.191
				c-0.519,0.26-1.042,0.391-1.569,0.391c-1.072,0-1.99-0.432-2.755-1.297c-0.765-0.863-1.147-2.069-1.147-3.616
				c0-1.582,0.372-2.784,1.116-3.608c0.744-0.822,1.685-1.234,2.821-1.234c1.043,0,1.945,0.434,2.707,1.301v-4.641h2.47V1272.063z
				 M1591.254,1267.194c0,0.996,0.138,1.717,0.413,2.162c0.398,0.645,0.955,0.967,1.67,0.967c0.568,0,1.052-0.242,1.45-0.725
				c0.398-0.484,0.598-1.206,0.598-2.167c0-1.072-0.193-1.844-0.58-2.315s-0.882-0.708-1.485-0.708
				c-0.586,0-1.076,0.233-1.472,0.698C1591.452,1265.573,1591.254,1266.269,1591.254,1267.194z"/>
			<path fill="#3B404B" d="M1604.456,1272.063v-12.885h2.47v4.641c0.762-0.867,1.663-1.301,2.706-1.301
				c1.137,0,2.078,0.412,2.822,1.234c0.744,0.824,1.115,2.006,1.115,3.547c0,1.594-0.379,2.821-1.138,3.683
				s-1.681,1.292-2.765,1.292c-0.533,0-1.059-0.134-1.577-0.4c-0.519-0.266-0.965-0.66-1.34-1.182v1.371H1604.456z
				 M1606.908,1267.194c0,0.967,0.152,1.682,0.457,2.145c0.428,0.656,0.996,0.984,1.704,0.984c0.545,0,1.01-0.232,1.394-0.699
				c0.384-0.465,0.575-1.199,0.575-2.201c0-1.066-0.193-1.835-0.58-2.307s-0.881-0.708-1.484-0.708c-0.592,0-1.084,0.23-1.477,0.69
				S1606.908,1266.257,1606.908,1267.194z"/>
			<path fill="#3B404B" d="M1614.027,1262.729h2.628l2.232,6.627l2.18-6.627h2.559l-3.297,8.982l-0.588,1.626
				c-0.217,0.545-0.424,0.961-0.621,1.248c-0.195,0.287-0.422,0.52-0.676,0.698c-0.256,0.179-0.568,0.318-0.941,0.418
				c-0.371,0.1-0.792,0.149-1.261,0.149c-0.475,0-0.94-0.05-1.397-0.149l-0.22-1.934c0.387,0.076,0.735,0.114,1.046,0.114
				c0.574,0,0.999-0.169,1.274-0.505c0.275-0.338,0.486-0.767,0.633-1.288L1614.027,1262.729z"/>
		</g>
	</g>
	<g>
		<circle fill="#3B404B" cx="2081.409" cy="838.66" r="43.25"/>
		<g>
			<path fill-rule="evenodd" clip-rule="evenodd" fill="#FFFFFF" d="M2060.29,815.987v45.343c0,4.837,3.914,8.752,8.75,8.752h24.737
				c4.836,0,8.75-3.915,8.75-8.752v-45.343c0-4.823-3.914-8.749-8.75-8.749h-24.737
				C2064.204,807.238,2060.29,811.164,2060.29,815.987z"/>
			<path fill-rule="evenodd" clip-rule="evenodd" fill="#3B404B" d="M2066.398,814.994v4.08c0,0.445,0.364,0.808,0.809,0.808h29.253
				c0.445,0,0.809-0.362,0.809-0.808v-4.08c0-0.435-0.363-0.797-0.809-0.797h-29.253
				C2066.763,814.197,2066.398,814.56,2066.398,814.994z"/>
			<g>
				<path fill-rule="evenodd" clip-rule="evenodd" fill="#3B404B" d="M2071.743,830.868c1.49,0,2.713,1.222,2.713,2.714
					c0,1.5-1.223,2.722-2.713,2.722c-1.501,0-2.724-1.222-2.724-2.722C2069.02,832.09,2070.242,830.868,2071.743,830.868z"/>
				<path fill-rule="evenodd" clip-rule="evenodd" fill="#3B404B" d="M2071.743,840.694c1.49,0,2.713,1.222,2.713,2.714
					c0,1.502-1.223,2.722-2.713,2.722c-1.501,0-2.724-1.22-2.724-2.722C2069.02,841.916,2070.242,840.694,2071.743,840.694z"/>
				<path fill-rule="evenodd" clip-rule="evenodd" fill="#3B404B" d="M2071.743,850.522c1.49,0,2.713,1.22,2.713,2.722
					c0,1.492-1.223,2.714-2.713,2.714c-1.501,0-2.724-1.222-2.724-2.714C2069.02,851.742,2070.242,850.522,2071.743,850.522z"/>
				<path fill-rule="evenodd" clip-rule="evenodd" fill="#3B404B" d="M2081.569,830.868c1.49,0,2.713,1.222,2.713,2.714
					c0,1.5-1.223,2.722-2.713,2.722c-1.501,0-2.724-1.222-2.724-2.722C2078.846,832.09,2080.068,830.868,2081.569,830.868z"/>
				<path fill-rule="evenodd" clip-rule="evenodd" fill="#3B404B" d="M2081.569,840.694c1.49,0,2.713,1.222,2.713,2.714
					c0,1.502-1.223,2.722-2.713,2.722c-1.501,0-2.724-1.22-2.724-2.722C2078.846,841.916,2080.068,840.694,2081.569,840.694z"/>
				<path fill-rule="evenodd" clip-rule="evenodd" fill="#3B404B" d="M2081.569,850.522c1.49,0,2.713,1.22,2.713,2.722
					c0,1.492-1.223,2.714-2.713,2.714c-1.501,0-2.724-1.222-2.724-2.714C2078.846,851.742,2080.068,850.522,2081.569,850.522z"/>
				<path fill-rule="evenodd" clip-rule="evenodd" fill="#3B404B" d="M2091.396,830.868c1.491,0,2.714,1.222,2.714,2.714
					c0,1.5-1.223,2.722-2.714,2.722c-1.502,0-2.725-1.222-2.725-2.722C2088.671,832.09,2089.894,830.868,2091.396,830.868z"/>
				<path fill-rule="evenodd" clip-rule="evenodd" fill="#3B404B" d="M2091.396,840.694c1.491,0,2.714,1.222,2.714,2.714
					c0,1.502-1.223,2.722-2.714,2.722c-1.502,0-2.725-1.22-2.725-2.722C2088.671,841.916,2089.894,840.694,2091.396,840.694z"/>
				<path fill-rule="evenodd" clip-rule="evenodd" fill="#3B404B" d="M2091.396,850.522c1.491,0,2.714,1.22,2.714,2.722
					c0,1.492-1.223,2.714-2.714,2.714c-1.502,0-2.725-1.222-2.725-2.714C2088.671,851.742,2089.894,850.522,2091.396,850.522z"/>
			</g>
		</g>
	</g>
	<g>
		<circle fill="#3B404B" cx="1161.103" cy="955.188" r="43.249"/>
		<g>
			<path fill="#FFFFFF" d="M1179.262,984.751L1179.262,984.751c-5.867,4.227-14.051,2.897-18.276-2.973l-24.803-34.438
				c-4.226-5.867-2.892-14.05,2.975-18.272"/>
			<path fill="#FFFFFF" d="M1159.364,935.103c1.31,1.819,0.895,4.36-0.928,5.674l-2.195,1.58c-1.823,1.312-4.36,0.898-5.672-0.922
				l-7.389-10.258c-1.309-1.824-0.9-4.362,0.924-5.672l2.196-1.586c1.823-1.309,4.363-0.896,5.672,0.925L1159.364,935.103z"/>
			<path fill="#FFFFFF" d="M1187.725,974.486c1.312,1.821,0.9,4.361-0.922,5.67l-2.198,1.583c-1.822,1.315-4.361,0.9-5.67-0.921
				l-7.392-10.261c-1.309-1.817-0.896-4.359,0.926-5.668l2.197-1.585c1.822-1.313,4.36-0.898,5.673,0.924L1187.725,974.486z"/>
		</g>
	</g>
	<g>
		<circle fill="#3B404B" cx="1274.735" cy="955.188" r="43.249"/>
		<g>
			<path fill="#FFFFFF" d="M1289.045,981.293l-11.156-30.652c-0.296-0.813,0.003-1.928,0.66-2.482c0,0,2.716-2.298,2.716-4.972
				c0-3.604-2.92-6.527-6.53-6.527c-3.605,0-6.528,2.924-6.528,6.527c0,2.674,2.713,4.972,2.713,4.972
				c0.658,0.555,0.956,1.669,0.663,2.482l-11.153,30.652c-0.296,0.807,0.116,1.198,0.91,0.87c0,0,8.088-3.366,13.396-3.366
				c5.312,0,13.402,3.366,13.402,3.366C1288.93,982.491,1289.337,982.1,1289.045,981.293z"/>
			<g>
				<g>
					<path fill="#FFFFFF" d="M1251.021,930.315c-3.139,3.138-4.692,7.301-4.691,11.518c0,4.623,1.845,9.339,5.479,12.97
						c0.422,0.422,1.104,0.422,1.526,0c0.424-0.425,0.424-1.107,0-1.532c-3.223-3.221-4.845-7.385-4.845-11.438
						c0.004-3.692,1.349-7.276,4.06-9.994c0.424-0.42,0.424-1.102,0-1.523C1252.128,929.895,1251.445,929.895,1251.021,930.315z"/>
					<path fill="#FFFFFF" d="M1256.787,932.232c-2.654,2.649-3.966,6.164-3.963,9.725c0,3.896,1.56,7.868,4.617,10.924
						c0.421,0.421,1.106,0.421,1.527,0c0.423-0.422,0.423-1.104,0-1.527c-2.651-2.651-3.982-6.073-3.982-9.396
						c0-3.036,1.106-5.971,3.326-8.194c0.426-0.424,0.426-1.105,0-1.53C1257.892,931.812,1257.206,931.812,1256.787,932.232z"/>
					<path fill="#FFFFFF" d="M1262.55,934.154c-2.164,2.157-3.229,5.027-3.229,7.923c0,3.169,1.268,6.399,3.751,8.887
						c0.423,0.42,1.108,0.42,1.529,0c0.422-0.42,0.422-1.104,0-1.526c-2.079-2.082-3.12-4.762-3.12-7.36
						c0.003-2.372,0.862-4.662,2.6-6.396c0.421-0.42,0.421-1.107,0-1.527C1263.659,933.73,1262.973,933.73,1262.55,934.154z"/>
				</g>
				<g>
					<path fill="#FFFFFF" d="M1298.451,930.315c3.139,3.138,4.692,7.301,4.69,11.518c0,4.623-1.845,9.339-5.478,12.97
						c-0.421,0.422-1.104,0.422-1.526,0c-0.425-0.425-0.425-1.107,0-1.532c3.222-3.221,4.844-7.385,4.844-11.438
						c-0.004-3.692-1.348-7.276-4.059-9.994c-0.424-0.42-0.424-1.102,0-1.523C1297.344,929.895,1298.027,929.895,1298.451,930.315z"
						/>
					<path fill="#FFFFFF" d="M1292.684,932.232c2.655,2.649,3.966,6.164,3.964,9.725c0,3.896-1.56,7.868-4.617,10.924
						c-0.421,0.421-1.106,0.421-1.528,0c-0.423-0.422-0.423-1.104,0-1.527c2.652-2.651,3.983-6.073,3.983-9.396
						c0-3.036-1.106-5.971-3.327-8.194c-0.426-0.424-0.426-1.105,0-1.53C1291.579,931.812,1292.266,931.812,1292.684,932.232z"/>
					<path fill="#FFFFFF" d="M1286.922,934.154c2.163,2.157,3.229,5.027,3.229,7.923c0,3.169-1.269,6.399-3.751,8.887
						c-0.424,0.42-1.108,0.42-1.529,0c-0.422-0.42-0.422-1.104,0-1.526c2.079-2.082,3.119-4.762,3.119-7.36
						c-0.002-2.372-0.861-4.662-2.599-6.396c-0.421-0.42-0.421-1.107,0-1.527C1285.813,933.73,1286.499,933.73,1286.922,934.154z"/>
				</g>
			</g>
		</g>
	</g>
	<g>
		<circle fill="#3B404B" cx="1389.959" cy="955.188" r="43.249"/>
		<g>
			<path fill="#FFFFFF" d="M1393.478,948.923v-0.62v-8.824v-1.173v-16.732c0-0.437-0.36-0.795-0.795-0.795h-5.549
				c-0.438,0-0.792,0.358-0.792,0.795v16.756v1.171v8.856v0.625c-2.188,1.254-3.666,3.612-3.666,6.317
				c0,4.023,3.261,7.278,7.283,7.278c4.018,0,7.279-3.255,7.279-7.278C1397.238,952.552,1395.718,950.163,1393.478,948.923z"/>
			<path fill="#FFFFFF" d="M1389.959,968.373c-6.387,0-11.62-4.93-12.107-11.19h-7.754c0.5,10.534,9.199,18.927,19.861,18.927
				s19.357-8.393,19.862-18.927h-7.756C1401.573,963.443,1396.342,968.373,1389.959,968.373z"/>
			<path fill="#FFFFFF" d="M1389.959,981.479c-13.697,0-24.879-10.766-25.545-24.296h-8.124
				c0.674,18.015,15.488,32.415,33.669,32.415c18.18,0,32.997-14.4,33.668-32.415h-8.124
				C1414.837,970.713,1403.656,981.479,1389.959,981.479z"/>
		</g>
		<g>
			<path fill="#FFFFFF" d="M1393.478,948.923v-0.62v-8.824v-1.173v-16.732c0-0.437-0.36-0.795-0.795-0.795h-5.549
				c-0.438,0-0.792,0.358-0.792,0.795v16.756v1.171v8.856v0.625c-2.188,1.254-3.666,3.612-3.666,6.317
				c0,4.023,3.261,7.278,7.283,7.278c4.018,0,7.279-3.255,7.279-7.278C1397.238,952.552,1395.718,950.163,1393.478,948.923z"/>
			<path fill="#FFFFFF" d="M1389.959,968.373c-6.387,0-11.62-4.93-12.107-11.19h-7.754c0.5,10.534,9.199,18.927,19.861,18.927
				s19.357-8.393,19.862-18.927h-7.756C1401.573,963.443,1396.342,968.373,1389.959,968.373z"/>
			<path fill="#FFFFFF" d="M1389.959,981.479c-13.697,0-24.879-10.766-25.545-24.296h-8.124
				c0.674,18.015,15.488,32.415,33.669,32.415c18.18,0,32.997-14.4,33.668-32.415h-8.124
				C1414.837,970.713,1403.656,981.479,1389.959,981.479z"/>
		</g>
	</g>
	<g>
		<circle fill="#3B404B" cx="1505.378" cy="955.188" r="43.249"/>
		<g>
			<path fill="#FFFFFF" d="M1499.047,950.206c0.876,0.796,0.694,2.979,0.416,3.596c-0.276,0.62-1.451,0.919-2.607,0.669
				c-1.154-0.248-2.377,0.845-2.72,2.433c-0.342,1.588,0.322,3.088,1.478,3.338c1.152,0.248,2.089,2.219,2.156,2.896
				c0.069,0.681-0.795,1.53-1.919,1.891c-1.125,0.362-1.638,1.925-1.142,3.469c0.494,1.543,1.821,2.511,2.946,2.151
				c1.126-0.364,2.323-0.178,2.665,0.414c0.341,0.587,0.728,2.737-0.063,3.613c-0.794,0.873-0.457,2.483,0.744,3.572
				c1.204,1.091,2.838,1.263,3.631,0.39c0.791-0.878,2.975-0.697,3.593-0.42c0.62,0.278,0.921,1.449,0.67,2.606
				c-0.248,1.155,0.845,2.381,2.433,2.721c1.588,0.342,3.087-0.319,3.336-1.476c0.249-1.154,2.22-2.091,2.898-2.16
				c0.68-0.067,1.527,0.799,1.889,1.921c0.363,1.124,1.923,1.637,3.468,1.141s2.514-1.822,2.154-2.947
				c-0.366-1.125,0.897-2.932,1.441-3.325c0.546-0.393,1.71-0.065,2.585,0.726c0.874,0.794,2.482,0.458,3.569-0.745
				c1.092-1.2,1.265-2.835,0.388-3.626c-0.875-0.798-0.694-2.983-0.414-3.6c0.275-0.617,1.449-0.918,2.604-0.666
				c1.155,0.25,2.381-0.844,2.722-2.431c0.34-1.586-0.322-3.089-1.475-3.336c-1.158-0.248-2.092-2.223-2.16-2.899
				c-0.068-0.68,0.797-1.53,1.921-1.892c1.121-0.363,1.636-1.922,1.139-3.465c-0.495-1.546-1.822-2.511-2.947-2.15
				c-1.124,0.361-2.93-0.9-3.326-1.447c-0.392-0.546-0.064-1.707,0.729-2.584c0.79-0.875,0.454-2.48-0.746-3.569
				c-1.203-1.089-2.832-1.264-3.629-0.388c-0.794,0.874-2.979,0.694-3.596,0.415c-0.615-0.279-0.918-1.449-0.67-2.606
				c0.251-1.154-0.844-2.38-2.43-2.721c-1.588-0.343-3.09,0.322-3.335,1.479c-0.25,1.151-2.226,2.09-2.9,2.156
				c-0.679,0.067-1.527-0.797-1.891-1.923c-0.358-1.123-1.92-1.636-3.462-1.14c-1.548,0.498-2.516,1.824-2.156,2.947
				c0.361,1.127-0.899,2.931-1.444,3.325c-0.548,0.394-1.706,0.066-2.583-0.724c-0.872-0.793-2.479-0.459-3.57,0.743
				C1498.344,947.781,1498.169,949.414,1499.047,950.206z M1512.107,949.377c6.768-2.179,14.018,1.544,16.195,8.31
				c2.177,6.768-1.544,14.019-8.311,16.193c-6.767,2.177-14.016-1.545-16.192-8.311
				C1501.622,958.804,1505.342,951.554,1512.107,949.377z"/>
			<path fill="#FFFFFF" d="M1475.914,933.552c0.565,0.51,0.449,1.916,0.271,2.311c-0.178,0.399-0.934,0.592-1.678,0.431
				c-0.741-0.159-1.529,0.544-1.75,1.565c-0.22,1.021,0.206,1.984,0.951,2.146c0.741,0.161,1.342,1.429,1.386,1.864
				c0.045,0.437-0.512,0.984-1.233,1.216c-0.724,0.233-1.054,1.236-0.733,2.23c0.317,0.995,1.169,1.617,1.893,1.384
				c0.727-0.234,1.495-0.114,1.716,0.265c0.219,0.382,0.466,1.764-0.043,2.326c-0.508,0.563-0.291,1.597,0.48,2.298
				c0.775,0.702,1.826,0.814,2.334,0.252c0.511-0.566,1.915-0.449,2.313-0.271c0.396,0.178,0.59,0.934,0.432,1.676
				c-0.162,0.743,0.543,1.532,1.563,1.754c1.021,0.217,1.987-0.21,2.147-0.952c0.159-0.741,1.43-1.346,1.866-1.389
				c0.436-0.043,0.98,0.513,1.214,1.236c0.232,0.723,1.234,1.052,2.229,0.732c0.993-0.32,1.615-1.174,1.384-1.896
				c-0.233-0.724,0.579-1.885,0.93-2.139c0.352-0.252,1.1-0.04,1.661,0.467c0.563,0.511,1.597,0.295,2.297-0.479
				c0.7-0.771,0.813-1.822,0.25-2.333c-0.563-0.512-0.446-1.917-0.269-2.314c0.18-0.396,0.934-0.591,1.677-0.429
				c0.745,0.16,1.532-0.542,1.752-1.563c0.219-1.02-0.209-1.986-0.95-2.146c-0.741-0.157-1.347-1.429-1.39-1.864
				c-0.042-0.438,0.512-0.983,1.234-1.215c0.725-0.234,1.056-1.236,0.737-2.23c-0.322-0.993-1.176-1.616-1.897-1.383
				c-0.724,0.232-1.887-0.579-2.138-0.931c-0.256-0.351-0.045-1.098,0.466-1.661c0.509-0.563,0.291-1.597-0.479-2.297
				c-0.773-0.7-1.826-0.812-2.335-0.25c-0.511,0.563-1.915,0.446-2.311,0.27c-0.398-0.184-0.592-0.935-0.431-1.679
				c0.159-0.741-0.546-1.531-1.565-1.75c-1.022-0.221-1.985,0.209-2.145,0.949c-0.16,0.741-1.43,1.345-1.865,1.391
				c-0.438,0.04-0.982-0.514-1.217-1.237c-0.231-0.724-1.234-1.055-2.229-0.733c-0.993,0.317-1.617,1.173-1.386,1.896
				c0.234,0.723-0.576,1.883-0.928,2.138c-0.353,0.251-1.1,0.043-1.661-0.466s-1.595-0.298-2.297,0.479
				C1475.464,931.991,1475.351,933.041,1475.914,933.552z M1484.316,933.016c4.354-1.4,9.019,0.994,10.416,5.347
				c1.401,4.352-0.991,9.016-5.347,10.416c-4.351,1.399-9.014-0.994-10.413-5.346
				C1477.574,939.08,1479.966,934.416,1484.316,933.016z"/>
			<path fill="#FFFFFF" d="M1475.292,960.441c0.435,0.392,0.344,1.473,0.206,1.776c-0.137,0.305-0.716,0.453-1.288,0.33
				c-0.57-0.122-1.178,0.418-1.346,1.202c-0.169,0.784,0.159,1.526,0.73,1.649c0.569,0.124,1.034,1.099,1.065,1.434
				c0.034,0.335-0.391,0.757-0.948,0.934c-0.556,0.18-0.81,0.951-0.563,1.716c0.243,0.762,0.898,1.241,1.455,1.064
				c0.557-0.184,1.15-0.089,1.317,0.204c0.168,0.29,0.36,1.354-0.032,1.786c-0.392,0.432-0.226,1.228,0.37,1.767
				c0.595,0.539,1.4,0.625,1.793,0.191s1.474-0.343,1.778-0.206s0.455,0.715,0.329,1.29c-0.12,0.568,0.419,1.174,1.203,1.346
				c0.785,0.166,1.527-0.163,1.65-0.732c0.123-0.571,1.098-1.034,1.433-1.067c0.335-0.035,0.754,0.395,0.934,0.949
				c0.179,0.556,0.95,0.808,1.714,0.563c0.766-0.246,1.243-0.901,1.063-1.456c-0.178-0.557,0.447-1.45,0.714-1.645
				c0.271-0.195,0.847-0.03,1.278,0.361c0.433,0.391,1.228,0.223,1.766-0.373c0.537-0.591,0.626-1.399,0.191-1.792
				c-0.433-0.393-0.342-1.474-0.205-1.777c0.136-0.305,0.718-0.454,1.289-0.331c0.568,0.124,1.178-0.417,1.346-1.203
				c0.168-0.782-0.16-1.524-0.73-1.648c-0.572-0.121-1.034-1.099-1.067-1.433c-0.033-0.337,0.394-0.756,0.949-0.935
				c0.557-0.18,0.811-0.95,0.565-1.712c-0.248-0.766-0.903-1.244-1.46-1.064c-0.555,0.178-1.447-0.447-1.643-0.717
				c-0.194-0.269-0.032-0.843,0.359-1.277c0.391-0.433,0.225-1.227-0.369-1.763c-0.595-0.539-1.403-0.626-1.792-0.192
				c-0.394,0.433-1.476,0.342-1.779,0.204c-0.305-0.136-0.454-0.717-0.331-1.288c0.123-0.57-0.419-1.178-1.203-1.347
				c-0.785-0.169-1.525,0.162-1.649,0.73c-0.121,0.571-1.098,1.035-1.434,1.068c-0.335,0.032-0.754-0.395-0.933-0.951
				c-0.179-0.555-0.95-0.81-1.714-0.563c-0.764,0.245-1.241,0.9-1.063,1.457c0.18,0.558-0.446,1.449-0.716,1.643
				c-0.271,0.196-0.843,0.035-1.277-0.359c-0.431-0.391-1.226-0.227-1.767,0.371C1474.944,959.24,1474.86,960.048,1475.292,960.441z
				 M1481.748,960.027c3.349-1.075,6.932,0.766,8.008,4.109c1.078,3.345-0.763,6.933-4.106,8.008
				c-3.346,1.077-6.932-0.765-8.009-4.11C1476.565,964.69,1478.404,961.104,1481.748,960.027z"/>
		</g>
	</g>
	<g>
		<circle fill="#3B404B" cx="1620.798" cy="955.188" r="43.249"/>
		<g>
			<path fill="#FFFFFF" d="M1622.063,975.535c-5.365-0.003-10.395-2.107-14.178-5.902c-3.045-3.062-4.922-6.936-5.561-11.123
				l8.26,0.017l-14.893-14.953l-14.951,14.894l8.722,0.012c0.682,7.6,3.957,14.658,9.409,20.125
				c6.179,6.216,14.409,9.636,23.168,9.654c8.765,0.019,17.006-3.375,23.207-9.557l-8.975-9.018
				C1632.473,973.473,1627.43,975.555,1622.063,975.535z"/>
			<path fill="#FFFFFF" d="M1608.159,940.262c3.381-3.734,8.015-5.924,13.058-6.171c9.885-0.486,18.296,6.806,19.525,16.469
				l-7.887,0.384l14.685,13.324l13.315-14.688l-8.105,0.39c-1.562-16.246-15.646-28.612-32.122-27.813
				c-8.225,0.407-15.795,3.979-21.313,10.066L1608.159,940.262z"/>
		</g>
	</g>
	<g>
		<circle fill="#3B404B" cx="1736.979" cy="955.188" r="43.249"/>
		<g>
			<path fill="#FFFFFF" d="M1760.517,931.651c-6.611-6.607-17.327-6.607-23.935,0c-4.495,4.495-5.927,10.887-4.306,16.598
				l0.981-0.985c2.549-2.547,7.223-2.006,10.438,1.209c3.217,3.212,3.758,7.886,1.209,10.437l-0.986,0.983
				c5.71,1.62,12.102,0.19,16.598-4.307C1767.122,948.978,1767.122,938.262,1760.517,931.651z M1757.279,942.326
				c-1.873,1.876-4.916,1.877-6.793,0c-1.875-1.878-1.875-4.918,0-6.792c1.877-1.877,4.92-1.877,6.793,0
				C1759.156,937.408,1759.156,940.448,1757.279,942.326z"/>
			<path fill="#FFFFFF" d="M1743,949.168c-2.867-2.866-7.032-3.346-9.306-1.074l-0.877,0.876l-22.897,22.899
				c-2.271,2.271-1.792,6.438,1.075,9.303c2.868,2.867,7.032,3.35,9.305,1.075l0.137-0.137l-0.026-0.177l-0.665-4.61l4.61,0.669
				l0.175,0.024l0.855-0.855l-0.025-0.176l-0.665-4.61l4.611,0.664l0.175,0.027l0.855-0.857l-0.025-0.175l-0.667-4.61l4.611,0.668
				l0.176,0.023l0.855-0.855l-0.024-0.176l-0.667-4.609l4.609,0.667l0.178,0.023l3.815-3.814l0.877-0.876
				C1746.347,956.2,1745.866,952.036,1743,949.168z"/>
		</g>
	</g>
	<g>
		<circle fill="#3B404B" cx="1850.466" cy="955.188" r="43.249"/>
		<path fill="#FFFFFF" d="M1879.568,945.773h-19.689v-19.687c0-2.391-2.236-4.324-4.994-4.324h-8.84
			c-2.759,0-4.993,1.934-4.993,4.324v19.687h-19.688c-2.39,0-4.323,2.232-4.323,4.994v8.836c0,2.761,1.934,4.997,4.323,4.997h19.688
			v19.69c0,2.385,2.234,4.323,4.993,4.323h8.84c2.758,0,4.994-1.938,4.994-4.323v-19.69h19.689c2.385,0,4.324-2.236,4.324-4.997
			v-8.836C1883.893,948.006,1881.953,945.773,1879.568,945.773z"/>
	</g>
	<path fill-rule="evenodd" clip-rule="evenodd" fill="#FFFFFF" d="M1908.494,956.408v-0.813c0-0.165,0.03-0.319,0.093-0.464h-3.241
		c-1.214,0-2.213-0.525-2.213-1.175v-0.009c0-0.638,0.999-1.173,2.213-1.173h15.919c1.224,0,2.212,0.535,2.212,1.173v0.009
		c0,0.649-0.988,1.175-2.212,1.175h-3.313c0.062,0.145,0.091,0.299,0.091,0.464v0.813c0,0.658-0.523,1.193-1.183,1.193h-7.171
		C1909.029,957.602,1908.494,957.066,1908.494,956.408z"/>
	<g>
		<circle fill="#3B404B" cx="1966.473" cy="955.188" r="43.249"/>
		<g>
			<path fill-rule="evenodd" clip-rule="evenodd" fill="#FFFFFF" d="M1956.734,974.439h19.293
				c3.612-5.638,6.412-11.276,8.747-16.926c22.134-46.625-56.604-48.426-37.567,0C1949.882,963.163,1952.7,968.802,1956.734,974.439
				z"/>
			<path fill-rule="evenodd" clip-rule="evenodd" fill="#FFFFFF" d="M1956.014,976.847v0.175c0,0.608,0.484,1.092,1.092,1.092
				h18.162c0.607,0,1.09-0.483,1.09-1.092v-0.175c0-0.597-0.482-1.09-1.09-1.09h-18.162
				C1956.498,975.757,1956.014,976.25,1956.014,976.847z"/>
			<path fill-rule="evenodd" clip-rule="evenodd" fill="#FFFFFF" d="M1956.014,980.141v0.175c0,0.606,0.484,1.091,1.092,1.091
				h18.162c0.607,0,1.09-0.484,1.09-1.091v-0.175c0-0.597-0.482-1.091-1.09-1.091h-18.162
				C1956.498,979.05,1956.014,979.544,1956.014,980.141z"/>
			<path fill-rule="evenodd" clip-rule="evenodd" fill="#FFFFFF" d="M1956.014,983.442v0.165c0,0.607,0.484,1.101,1.092,1.101
				h18.162c0.607,0,1.09-0.493,1.09-1.101v-0.165c0-0.606-0.482-1.089-1.09-1.089h-18.162
				C1956.498,982.354,1956.014,982.836,1956.014,983.442z"/>
			<path fill="#3B404B" d="M1962.363,928.722c-0.029,0.277,0.072,0.546-0.05,0.813c-0.374,0.813-0.897,1.285-1.597,1.821
				c-0.947,0.751-2.017,1.151-3.034,1.77c-1.227,0.73-2.296,1.625-3.223,2.706c-1.572,1.863-2.274,3.941-2.82,6.267
				c-0.194,0.823-0.276,1.698-0.472,2.5c-0.072,0.289-0.124,0.741-0.4,0.916c-0.392-0.164-0.589-1.06-0.68-1.451
				c-0.31-1.234-0.351-2.634-0.268-3.899c0.309-4.795,2.85-8.396,6.708-11.073c1.307-0.903,3.212-1.635,4.805-1.192
				c0.196,0.052,0.321,0.134,0.495,0.216C1962.096,928.248,1962.168,928.526,1962.363,928.722z"/>
		</g>
	</g>
	<g>
		<circle fill="#3B404B" cx="2081.409" cy="955.188" r="43.25"/>
		<g>
			<polygon fill-rule="evenodd" clip-rule="evenodd" fill="#FFFFFF" points="2058.482,974.686 2074.022,958.765 2081.601,966.343 
				2104.14,943.32 2111.718,951.766 2112.008,928.071 2088.508,928.554 2096.655,936.132 2081.022,951.094 2073.929,943.32 
				2050.811,966.53 			"/>
			<polygon fill-rule="evenodd" clip-rule="evenodd" fill="#FFFFFF" points="2058.482,982.307 2058.482,979.964 2065.008,973.344 
				2065.008,982.307 			"/>
			<polygon fill-rule="evenodd" clip-rule="evenodd" fill="#FFFFFF" points="2066.773,982.307 2066.826,971.426 2073.352,965.096 
				2073.3,982.307 			"/>
			<polygon fill-rule="evenodd" clip-rule="evenodd" fill="#FFFFFF" points="2075.045,982.307 2075.075,965.188 2081.601,970.949 
				2081.57,982.307 			"/>
			<polygon fill-rule="evenodd" clip-rule="evenodd" fill="#FFFFFF" points="2089.003,982.307 2088.973,963.961 2082.457,970.856 
				2082.478,982.307 			"/>
			<polygon fill-rule="evenodd" clip-rule="evenodd" fill="#FFFFFF" points="2097.17,982.307 2097.141,956.453 2090.623,962.399 
				2090.645,982.307 			"/>
			<polygon fill-rule="evenodd" clip-rule="evenodd" fill="#FFFFFF" points="2105.214,982.307 2105.182,948.927 2098.658,954.966 
				2098.688,982.307 			"/>
		</g>
	</g>
	<g>
		<circle fill="#3B404B" cx="1161.103" cy="1072.115" r="43.249"/>
		<g>
			<g>
				<path fill="#FFFFFF" d="M1159.39,1104.488v-6.434c-3.219-0.404-5.83-1.124-7.845-2.162c-2.015-1.034-3.751-2.708-5.217-5.021
					c-1.466-2.308-2.318-5.132-2.553-8.468l6.464-1.216c0.501,3.454,1.381,5.99,2.648,7.61c1.807,2.286,3.976,3.561,6.502,3.827
					v-20.475c-2.644-0.501-5.351-1.524-8.111-3.075c-2.052-1.141-3.629-2.724-4.731-4.754c-1.109-2.02-1.663-4.321-1.663-6.891
					c0-4.578,1.62-8.281,4.86-11.11c2.163-1.909,5.382-3.075,9.646-3.507v-3.07h3.783v3.07c3.741,0.356,6.71,1.454,8.899,3.287
					c2.81,2.335,4.504,5.537,5.074,9.614l-6.646,1.002c-0.385-2.526-1.173-4.465-2.377-5.809c-1.205-1.343-2.852-2.233-4.951-2.659
					v18.54c3.24,0.811,5.388,1.444,6.433,1.892c2.004,0.885,3.634,1.956,4.897,3.218c1.263,1.264,2.232,2.762,2.91,4.504
					c0.682,1.737,1.018,3.619,1.018,5.644c0,4.455-1.418,8.169-4.253,11.148s-6.502,4.572-11.005,4.785v6.508H1159.39z
					 M1159.39,1048.176c-2.505,0.383-4.477,1.38-5.915,3c-1.439,1.62-2.164,3.538-2.164,5.755c0,2.19,0.618,4.024,1.844,5.5
					s3.304,2.659,6.235,3.538V1048.176z M1163.173,1092.626c2.505-0.31,4.567-1.397,6.203-3.252
					c1.631-1.859,2.446-4.156,2.446-6.895c0-2.335-0.581-4.217-1.732-5.628c-1.156-1.418-3.458-2.686-6.917-3.811V1092.626z"/>
			</g>
		</g>
	</g>
	<g>
		<circle fill="#3B404B" cx="1274.735" cy="1072.115" r="43.249"/>
		<g>
			<rect x="1284.784" y="1073.801" fill="#FFFFFF" width="19.795" height="5.456"/>
			<path fill="#FFFFFF" d="M1284.765,1052.31v19.913h18.907l-7.273-19.913H1284.765z M1286.586,1055.037h8.917l5.577,15.267h-14.494
				V1055.037z"/>
			<path fill="#FFFFFF" d="M1244.893,1085.652h7.977c-0.355,0.86-0.551,1.792-0.551,2.771c0,4.101,3.419,7.428,7.637,7.428
				c4.22,0,7.647-3.327,7.647-7.428c0-0.979-0.202-1.91-0.558-2.771h18.145c-0.354,0.86-0.556,1.792-0.556,2.771
				c0,4.101,3.426,7.428,7.642,7.428c4.22,0,7.639-3.327,7.639-7.428c0-0.979-0.195-1.91-0.554-2.771h4.111l0.805-5.25h-59.384
				V1085.652z M1287.453,1085.652c0.978-1.602,2.77-2.679,4.822-2.679c2.056,0,3.842,1.077,4.817,2.679
				c0.498,0.815,0.786,1.757,0.786,2.771c0,3.009-2.51,5.448-5.604,5.448c-3.096,0-5.602-2.439-5.602-5.448
				C1286.674,1087.409,1286.961,1086.468,1287.453,1085.652z M1255.138,1085.652c0.977-1.602,2.769-2.679,4.817-2.679
				c2.058,0,3.847,1.077,4.824,2.679c0.495,0.815,0.784,1.757,0.784,2.771c0,3.009-2.509,5.448-5.608,5.448
				c-3.093,0-5.603-2.439-5.603-5.448C1254.353,1087.409,1254.648,1086.468,1255.138,1085.652z"/>
			<rect x="1245.126" y="1052.184" fill="#FFFFFF" width="36.988" height="26.041"/>
		</g>
	</g>
	<g>
		<circle fill="#3B404B" cx="1389.959" cy="1072.115" r="43.249"/>
		<g>
			<path fill="#FFFFFF" d="M1422.085,1073.918c-0.548-0.513-0.411-1.907-0.229-2.297c0.179-0.386,0.927-0.566,1.656-0.398
				c0.731,0.17,1.515-0.517,1.749-1.522c0.233-1.009-0.178-1.968-0.912-2.136c-0.732-0.17-1.311-1.435-1.35-1.865
				c-0.035-0.431,0.521-0.962,1.24-1.183c0.717-0.221,1.06-1.209,0.755-2.196c-0.303-0.986-1.138-1.611-1.859-1.391
				c-0.717,0.219-1.849-0.583-2.096-0.938c-0.252-0.358-0.031-1.098,0.476-1.646c0.511-0.552,0.312-1.574-0.444-2.28
				c-0.754-0.703-1.794-0.828-2.302-0.276c-0.514,0.552-1.235,0.82-1.608,0.598c-0.37-0.221-1.254-1.294-1.089-2.023
				c0.17-0.737-0.519-1.522-1.524-1.753c-1.007-0.231-1.968,0.183-2.136,0.914c-0.165,0.735-1.435,1.314-1.863,1.352
				s-0.963-0.521-1.185-1.24c-0.218-0.719-1.206-1.059-2.192-0.754c-0.985,0.305-1.614,1.14-1.394,1.856
				c0.222,0.719-0.583,1.849-0.938,2.102c-0.354,0.247-1.095,0.031-1.644-0.48c-0.549-0.513-1.574-0.311-2.279,0.443
				c-0.702,0.76-0.827,1.795-0.281,2.306c0.552,0.513,0.416,1.906,0.234,2.297c-0.18,0.386-0.928,0.566-1.66,0.4
				c-0.731-0.171-1.516,0.515-1.749,1.521c-0.229,1.007,0.182,1.97,0.916,2.137c0.73,0.169,1.311,1.436,1.346,1.864
				c0.039,0.431-0.518,0.96-1.235,1.183c-0.722,0.218-1.058,1.209-0.756,2.196c0.306,0.984,1.138,1.613,1.855,1.391
				s1.853,0.581,2.1,0.938c0.252,0.354,0.036,1.097-0.477,1.646c-0.511,0.552-0.311,1.576,0.443,2.278
				c0.756,0.699,1.794,0.826,2.304,0.278c0.513-0.552,1.909-0.412,2.296-0.232c0.389,0.179,0.57,0.923,0.4,1.66
				c-0.166,0.731,0.519,1.517,1.522,1.749c1.005,0.229,1.967-0.183,2.136-0.914c0.168-0.733,1.436-1.311,1.864-1.348
				c0.431-0.041,0.965,0.519,1.184,1.238c0.222,0.719,1.212,1.055,2.194,0.754c0.989-0.303,1.615-1.14,1.39-1.856
				c-0.219-0.717,0.586-1.851,0.942-2.1c0.354-0.247,1.093-0.033,1.647,0.479c0.549,0.513,1.571,0.313,2.274-0.443
				C1422.511,1075.466,1422.636,1074.431,1422.085,1073.918z M1405.788,1072.509c-3.309-3.078-3.501-8.26-0.422-11.569
				c3.08-3.311,8.258-3.502,11.567-0.422c3.313,3.078,3.504,8.258,0.426,11.569
				C1414.283,1075.397,1409.102,1075.587,1405.788,1072.509z"/>
			<path fill="#FFFFFF" d="M1392.973,1083.631c-0.856-0.798-0.64-2.965-0.358-3.57c0.28-0.603,1.44-0.88,2.578-0.625
				c1.135,0.266,2.361-0.801,2.72-2.365c0.359-1.563-0.278-3.058-1.418-3.315c-1.141-0.264-2.04-2.237-2.1-2.906
				c-0.058-0.666,0.807-1.494,1.929-1.834c1.114-0.344,1.644-1.877,1.17-3.414c-0.472-1.533-1.769-2.506-2.887-2.165
				c-1.117,0.344-2.875-0.903-3.265-1.455c-0.385-0.553-0.05-1.706,0.743-2.559c0.796-0.857,0.485-2.45-0.691-3.546
				c-1.17-1.091-2.783-1.284-3.577-0.429c-0.798,0.856-1.922,1.271-2.5,0.929c-0.579-0.346-1.954-2.009-1.693-3.148
				c0.264-1.141-0.805-2.365-2.369-2.722c-1.563-0.36-3.059,0.282-3.317,1.422c-0.261,1.138-2.234,2.034-2.9,2.098
				c-0.666,0.058-1.492-0.808-1.838-1.923c-0.342-1.118-1.878-1.649-3.411-1.18c-1.534,0.474-2.508,1.773-2.167,2.887
				c0.343,1.118-0.904,2.882-1.458,3.266c-0.552,0.389-1.702,0.053-2.558-0.742c-0.854-0.797-2.448-0.482-3.541,0.694
				c-1.093,1.173-1.286,2.787-0.433,3.579c0.854,0.795,0.641,2.967,0.359,3.566c-0.281,0.602-1.44,0.884-2.579,0.624
				c-1.137-0.26-2.358,0.804-2.722,2.369c-0.356,1.562,0.283,3.056,1.418,3.315c1.144,0.266,2.044,2.239,2.1,2.901
				c0.06,0.669-0.808,1.495-1.924,1.837c-1.118,0.345-1.646,1.878-1.173,3.414c0.472,1.533,1.771,2.51,2.887,2.164
				c1.114-0.344,2.877,0.908,3.264,1.459c0.388,0.554,0.052,1.701-0.743,2.559c-0.795,0.855-0.484,2.449,0.689,3.538
				c1.175,1.096,2.787,1.289,3.583,0.433c0.796-0.854,2.964-0.639,3.568-0.357c0.604,0.278,0.881,1.438,0.622,2.578
				c-0.259,1.138,0.807,2.363,2.368,2.722c1.563,0.36,3.059-0.282,3.317-1.422c0.264-1.139,2.234-2.037,2.903-2.095
				c0.666-0.059,1.492,0.807,1.837,1.926c0.345,1.115,1.879,1.645,3.413,1.17c1.535-0.472,2.506-1.768,2.162-2.886
				c-0.345-1.113,0.909-2.877,1.458-3.264c0.555-0.384,1.704-0.048,2.56,0.746c0.857,0.795,2.449,0.481,3.543-0.688
				C1393.636,1086.035,1393.829,1084.424,1392.973,1083.631z M1367.64,1081.438c-5.148-4.784-5.444-12.838-0.66-17.987
				c4.787-5.148,12.843-5.439,17.99-0.657c5.146,4.784,5.441,12.839,0.655,17.987
				C1380.841,1085.932,1372.788,1086.223,1367.64,1081.438z"/>
			<path fill="#FFFFFF" d="M1382.652,1078.466c-3.506,3.508-9.19,3.509-12.696,0.006c-3.509-3.511-3.509-9.197-0.003-12.7
				c3.509-3.509,9.193-3.509,12.699,0C1386.159,1069.274,1386.159,1074.961,1382.652,1078.466z"/>
		</g>
	</g>
	<g>
		<circle fill="#3B404B" cx="1505.378" cy="1072.115" r="43.249"/>
		<path fill="#FFFFFF" d="M1533.514,1086.501l-14.383-14.384l14.381-14.383c1.747-1.745,1.526-4.791-0.488-6.806l-6.459-6.457
			c-2.015-2.016-5.059-2.235-6.804-0.488l-14.383,14.381l-14.382-14.383c-1.747-1.745-4.79-1.527-6.807,0.49l-6.455,6.455
			c-2.016,2.017-2.236,5.063-0.491,6.808l14.382,14.383l-14.384,14.384c-1.741,1.743-1.526,4.79,0.49,6.807l6.457,6.456
			c2.014,2.015,5.063,2.231,6.806,0.49l14.384-14.384l14.385,14.384c1.741,1.741,4.791,1.524,6.808-0.492l6.455-6.454
			C1535.041,1091.289,1535.257,1088.242,1533.514,1086.501z"/>
	</g>
	<g>
		<circle fill="#3B404B" cx="1620.798" cy="1072.115" r="43.249"/>
		<path fill-rule="evenodd" clip-rule="evenodd" fill="#FFFFFF" d="M1611.842,1105.318c-0.056-0.235-0.1-0.462-0.146-0.687
			c-0.685-0.585-1.114-1.45-1.114-2.427c0-1.754,1.428-3.193,3.193-3.193c1.755,0,3.193,1.439,3.193,3.193
			c0,1.764-1.438,3.191-3.193,3.191c-0.111,0-0.213,0-0.303-0.011c3.55,5.675,10.608,2.112,10.599-2.922l-0.831-6.172l0,0v-0.011
			c-7.296,1.034-15.636-2.664-16.95-11.859c-0.429-3.832-0.078-8.114,3.912-13.071c1.259-1.686,5.45-5.9,8.372-9.036l-0.011-0.013
			l0.101-0.101l-0.101-0.72c-0.394-3.169-4.541-14.275,4.192-23.03c2.025-1.922,3.631-2.337,4.618-0.552
			c1.979,6.082,4.058,18.051-3.696,25.818c-0.9,0.89-1.774,1.755-2.63,2.608l-0.136,0.147l1.022,7.541c0.014,0,0.024,0,0.035,0.011
			v0.012c5.936-0.663,11.689,1.35,12.564,8.71c0.845,7.217-3.821,11.769-9.598,13.207c0,0-0.011,0-0.021,0l0.808,5.958
			C1626.655,1110.218,1614.528,1112.241,1611.842,1105.318z M1623.239,1096.292v-0.011c0.011,0,0.022,0,0.022,0s-0.012,0-0.022,0
			V1096.292z M1623.262,1096.281 M1623.114,1095.314L1623.114,1095.314L1623.114,1095.314l-2.292-17.006h-0.012
			c-3.305,1.191-5.855,4.766-4.979,11.835c-4.575-9.542-0.844-14.477,4.461-15.813l-0.854-6.352l-0.066,0.034
			c-5.34,5.45-9.385,10.442-9.509,16.489C1609.763,1091.347,1616.474,1096.034,1623.114,1095.314z M1624.789,1094.998
			L1624.789,1094.998L1624.789,1094.998z M1631.982,1086.356c1.01-5.608-4.474-9.071-9.486-8.441l-0.021,0.022l2.314,17.061
			C1628.116,1094.077,1631.196,1091.413,1631.982,1086.356z M1620.293,1074.353v-0.022l0,0V1074.353z M1620.126,1060.627
			l0.211-0.235v0.011l0.428-0.449c6.161-7.114,8.284-13.937,4.745-18.962c-4.891,2.722-7.003,10.903-5.733,17.074L1620.126,1060.627
			z"/>
	</g>
	<g>
		<circle fill="#3B404B" cx="1736.979" cy="1072.115" r="43.249"/>
		<path fill-rule="evenodd" clip-rule="evenodd" fill="#FFFFFF" d="M1708.524,1097.369v-4.481l0,0v-9.813h5.294v9.813h46.286v-9.813
			h5.293v9.813h0.035v4.481H1708.524z M1736.978,1087.812l-17.434-17.434h34.87L1736.978,1087.812z M1727.706,1069.027v-20.575
			h19.262v20.575H1727.706z M1727.706,1047.103v-4.04h19.262v4.04H1727.706z"/>
	</g>
	<g>
		<circle fill="#3B404B" cx="1850.466" cy="1072.115" r="43.249"/>
		<path fill-rule="evenodd" clip-rule="evenodd" fill="#FFFFFF" d="M1857.649,1099.823l-25.763-13.088v-24.92l25.753-17.405
			L1857.649,1099.823z M1865.313,1094.833l-0.654-2.623c3.801-0.713,7.425-2.545,10.356-5.475c7.762-7.763,7.762-20.366,0-28.128
			c-2.852-2.843-6.337-4.644-10.011-5.396l0.645-2.634c4.139,0.882,8.068,2.92,11.276,6.128c8.821,8.812,8.821,23.117,0,31.939
			C1873.628,1091.942,1869.569,1094.001,1865.313,1094.833z M1863.748,1088.526l-0.486-1.939c3.011-0.368,5.91-1.703,8.218-4.001
			c5.466-5.475,5.466-14.354,0-19.82c-2.207-2.209-4.97-3.525-7.842-3.95l0.477-1.94c3.218,0.515,6.296,2.009,8.771,4.485
			c6.248,6.247,6.248,16.386,0,22.633C1870.313,1086.557,1867.084,1088.072,1863.748,1088.526z M1817.393,1083.575v-18.7
			c0-2.04,1.654-3.694,3.684-3.694h4.387c2.029,0,3.684,1.654,3.684,3.694v18.7c0,2.04-1.654,3.694-3.684,3.694h-4.387
			C1819.047,1087.27,1817.393,1085.615,1817.393,1083.575z M1862.432,1083.249l-0.109-0.485c-0.119-0.445-0.298-0.87-0.515-1.257
			c1.97-0.188,3.899-1.039,5.415-2.563c3.465-3.455,3.465-9.078,0-12.544c-1.396-1.396-3.138-2.229-4.951-2.495
			c0.149-0.277,0.268-0.574,0.348-0.9l0.208-0.842c2.079,0.375,4.069,1.355,5.673,2.96c4.168,4.168,4.168,10.931,0,15.099
			C1866.798,1081.933,1864.648,1082.944,1862.432,1083.249z"/>
	</g>
	<g>
		<circle fill="#3B404B" cx="1966.473" cy="1072.115" r="43.249"/>
		<path fill-rule="evenodd" clip-rule="evenodd" fill="#FFFFFF" d="M1982.232,1103.006l-28.722-14.593v-27.78l28.712-19.406
			L1982.232,1103.006z M1983.935,1089.947v-33.829c2.703,0.05,5.396,1.416,7.595,4.138c4.931,6.119,5.455,16.821,1.178,23.871
			C1990.41,1087.908,1987.182,1089.878,1983.935,1089.947z M1937.344,1084.888v-20.851c0-2.267,1.852-4.117,4.118-4.117h4.881
			c2.268,0,4.108,1.851,4.108,4.117v20.851c0,2.269-1.841,4.12-4.108,4.12h-4.881
			C1939.195,1089.008,1937.344,1087.156,1937.344,1084.888z"/>
	</g>
	<g>
		<circle fill="#3B404B" cx="2081.409" cy="1072.115" r="43.25"/>
		<path fill-rule="evenodd" clip-rule="evenodd" fill="#FFFFFF" d="M2101.648,1103.198l-50.353-53.273l2.91-2.683l50.739,53.096
			L2101.648,1103.198z M2088.917,1098.941l-26.918-13.683v-22.235l26.908,28.474L2088.917,1098.941z M2099.928,1092.932
			l-2.189-2.287c3.415-0.909,6.643-2.703,9.316-5.386c8.118-8.107,8.118-21.275,0-29.385c-2.971-2.968-6.613-4.851-10.455-5.642
			l0.673-2.744c4.316,0.912,8.427,3.039,11.782,6.397c9.217,9.207,9.217,24.157,0,33.375
			C2106.392,1089.923,2103.264,1091.814,2099.928,1092.932z M2095.282,1087.131l-0.504-2.029c3.139-0.377,6.178-1.773,8.583-4.178
			c5.713-5.714,5.713-14.989,0-20.713c-2.307-2.296-5.188-3.672-8.188-4.117l0.507-2.031c3.346,0.536,6.563,2.1,9.146,4.684
			c6.535,6.524,6.535,17.117,0,23.652C2102.144,1085.081,2098.778,1086.655,2095.282,1087.131z M2046.85,1081.962v-19.543
			c0-2.128,1.723-3.851,3.852-3.851h4.574c2.129,0,3.852,1.723,3.852,3.851v19.543c0,2.13-1.723,3.853-3.852,3.853h-4.574
			C2048.572,1085.814,2046.85,1084.092,2046.85,1081.962z M2088.907,1081.696l-23.453-24.812l23.453-15.852V1081.696z
			 M2093.916,1081.617l-0.128-0.496c-0.119-0.476-0.298-0.921-0.535-1.316c2.07-0.208,4.079-1.099,5.673-2.683
			c3.613-3.614,3.613-9.484,0-13.108c-1.465-1.456-3.296-2.326-5.187-2.614c0.167-0.276,0.286-0.594,0.375-0.93l0.208-0.882
			c2.169,0.386,4.248,1.416,5.932,3.098c4.355,4.347,4.355,11.416,0,15.771C2098.47,1080.239,2096.232,1081.299,2093.916,1081.617z"
			/>
	</g>
	<circle fill="#3B404B" cx="1161.103" cy="1185.61" r="43.249"/>
	<g>
		<g>
			<path fill-rule="evenodd" clip-rule="evenodd" fill="#FFFFFF" d="M1178.38,1162.046c-0.959,0-1.792,0.661-2.01,1.596
				c0,0-6.185,26.5-6.854,29.369c-3.002,0-36.808,0-36.808,0c-1.14,0-2.063,0.925-2.063,2.064s0.924,2.063,2.063,2.063h38.446
				c0.959,0,1.792-0.66,2.01-1.595c0,0,6.184-26.5,6.854-29.37c2.538,0,12.03,0,12.03,0c1.141,0,2.064-0.925,2.064-2.064
				s-0.924-2.063-2.064-2.063H1178.38z"/>
		</g>
		<path fill-rule="evenodd" clip-rule="evenodd" fill="#FFFFFF" d="M1138.724,1200.232c2.471,0,4.476,2.006,4.476,4.47
			c0,2.472-2.005,4.477-4.476,4.477c-2.465,0-4.47-2.005-4.47-4.477C1134.254,1202.238,1136.259,1200.232,1138.724,1200.232z"/>
		<path fill-rule="evenodd" clip-rule="evenodd" fill="#FFFFFF" d="M1164.221,1200.232c2.465,0,4.469,2.006,4.469,4.47
			c0,2.472-2.004,4.477-4.469,4.477c-2.473,0-4.478-2.005-4.478-4.477C1159.743,1202.238,1161.748,1200.232,1164.221,1200.232z"/>
		<g>
			<path fill-rule="evenodd" clip-rule="evenodd" fill="#FFFFFF" d="M1134.444,1185.271c-1.141,0-2.064,0.924-2.064,2.063
				s0.924,2.064,2.064,2.064h29.411c1.141,0,2.064-0.925,2.064-2.064s-0.924-2.063-2.064-2.063H1134.444z"/>
		</g>
		<g>
			<path fill-rule="evenodd" clip-rule="evenodd" fill="#FFFFFF" d="M1132.487,1176.498c-1.14,0-2.063,0.924-2.063,2.063
				s0.924,2.064,2.063,2.064h32.953c1.141,0,2.064-0.925,2.064-2.064s-0.924-2.063-2.064-2.063H1132.487z"/>
		</g>
		<g>
			<path fill-rule="evenodd" clip-rule="evenodd" fill="#FFFFFF" d="M1130.158,1167.719c-1.141,0-2.064,0.925-2.064,2.064
				s0.924,2.063,2.064,2.063h39.157c1.14,0,2.063-0.924,2.063-2.063s-0.924-2.064-2.063-2.064H1130.158z"/>
		</g>
	</g>
	<g>
		<circle fill="#3B404B" cx="1274.735" cy="1185.61" r="43.25"/>
		<g>
			<g>
				<path fill-rule="evenodd" clip-rule="evenodd" fill="#FFFFFF" d="M1245.488,1207.89c0-3.852,5.21-6.984,11.624-6.984
					c2.581,0,4.978,0.514,6.909,1.377l-0.282-35.021l34.263-10.914l1.979,40.24c0,0.039,0,0.086,0,0.127
					c0,3.918-5.199,7.111-11.624,7.111c-6.414,0-11.625-3.193-11.625-7.111c0-3.922,5.211-7.113,11.625-7.113
					c2.231,0,4.309,0.387,6.084,1.047l-1.028-17.582l-24.842,8.615l0.156,25.947c0,0.088,0.011,0.176,0.011,0.262l-0.011,0.088
					v0.117c-0.174,3.764-5.308,6.783-11.615,6.783C1250.698,1214.878,1245.488,1211.743,1245.488,1207.89z"/>
			</g>
		</g>
	</g>
	<g>
		<circle fill="#3B404B" cx="1389.959" cy="1185.611" r="43.249"/>
		<path fill-rule="evenodd" clip-rule="evenodd" fill="#FFFFFF" d="M1389.96,1154.173c17.546,0,31.771,14.236,31.771,31.772
			s-14.226,31.772-31.771,31.772c-17.536,0-31.773-14.236-31.773-31.772S1372.424,1154.173,1389.96,1154.173z"/>
		<g>
			<g>
				<path fill-rule="evenodd" clip-rule="evenodd" fill="#3B404B" d="M1362.902,1185.965c0,14.913,12.138,27.046,27.057,27.046
					c14.918,0,27.056-12.133,27.056-27.046c0-14.918-12.138-27.056-27.056-27.056
					C1375.04,1158.909,1362.902,1171.047,1362.902,1185.965z M1366.241,1185.965c0-13.077,10.64-23.717,23.718-23.717
					c13.077,0,23.717,10.64,23.717,23.717c0,13.072-10.64,23.707-23.717,23.707
					C1376.881,1209.672,1366.241,1199.037,1366.241,1185.965z"/>
			</g>
			<path fill-rule="evenodd" clip-rule="evenodd" fill="#3B404B" d="M1389.97,1163.958c0.772,0,1.413,0.642,1.413,1.414
				c0,0.771-0.641,1.403-1.413,1.403c-0.773,0-1.405-0.632-1.405-1.403C1388.564,1164.6,1389.196,1163.958,1389.97,1163.958z"/>
			<path fill-rule="evenodd" clip-rule="evenodd" fill="#3B404B" d="M1389.97,1205.276c0.772,0,1.413,0.642,1.413,1.413
				c0,0.762-0.641,1.403-1.413,1.403c-0.773,0-1.405-0.642-1.405-1.403C1388.564,1205.918,1389.196,1205.276,1389.97,1205.276z"/>
			<path fill-rule="evenodd" clip-rule="evenodd" fill="#3B404B" d="M1367.9,1186.025c0-0.771,0.642-1.403,1.415-1.403
				c0.76,0,1.402,0.632,1.402,1.403s-0.643,1.414-1.402,1.414C1368.542,1187.439,1367.9,1186.797,1367.9,1186.025z"/>
			<path fill-rule="evenodd" clip-rule="evenodd" fill="#3B404B" d="M1409.219,1186.025c0-0.771,0.643-1.403,1.403-1.403
				c0.772,0,1.415,0.632,1.415,1.403s-0.643,1.414-1.415,1.414C1409.861,1187.439,1409.219,1186.797,1409.219,1186.025z"/>
			<g>
				<path fill-rule="evenodd" clip-rule="evenodd" fill="#3B404B" d="M1389.077,1172.831v13.274c0,0.191,0.065,0.376,0.186,0.523
					l6.426,7.931c0.289,0.357,0.813,0.413,1.17,0.124c0.203-0.165,0.309-0.405,0.309-0.648c0-0.184-0.061-0.368-0.186-0.522
					c0,0-5.89-7.27-6.24-7.702c0-0.563,0-12.979,0-12.979c0-0.459-0.372-0.832-0.832-0.832S1389.077,1172.372,1389.077,1172.831z"/>
			</g>
		</g>
	</g>
	<g>
		<circle fill="#3B404B" cx="1505.378" cy="1185.611" r="43.249"/>
		<path fill="#FFFFFF" d="M1501.538,1167.606c-4.233-4.226-9.533-4.581-13.234-0.872c-3.688,3.682-3.336,9.002,0.872,13.216
			l22.87,22.867c0.778,0.761,2.046,0.761,2.806,0c0.781-0.78,0.781-2.047,0-2.826l-22.847-22.866
			c-2.047-2.052-3.354-5.109-0.877-7.586c2.457-2.457,5.534-1.147,7.586,0.899l25.399,25.399c7.291,7.291,9.104,10.663,4.775,15.011
			c-4.406,4.386-9.064,3.296-16.064-3.703l-28.229-28.248c-4.563-4.563-7.756-12.01-1.753-17.992c7.116-7.117,15.226-0.12,17.55,2.2
			l25.944,25.948c0.759,0.78,2.045,0.78,2.806,0c0.781-0.779,0.781-2.047,0-2.826l-25.926-25.946
			c-7.837-7.842-16.73-8.68-23.198-2.205c-6.552,6.531-5.829,16.045,1.753,23.646l28.225,28.231
			c2.42,2.396,7.547,7.523,13.454,7.523c2.651,0,5.478-1.032,8.266-3.82c7.935-7.935,0.586-15.285-4.775-20.645L1501.538,1167.606z"
			/>
	</g>
	<g>
		<circle fill="#3B404B" cx="1620.797" cy="1185.611" r="43.25"/>
		<path fill-rule="evenodd" clip-rule="evenodd" fill="#FFFFFF" d="M1649.931,1205.647h-58.097l18.019-22.513l11.047,9.97
			l11.209-9.97L1649.931,1205.647z M1590.288,1204.589v-37.944l17.941,15.388L1590.288,1204.589z M1651.307,1204.05l-17.573-22.018
			l17.573-15.396V1204.05z M1621.002,1190.141l-28.425-24.563h56.328L1621.002,1190.141z"/>
	</g>
	<g>
		<circle fill="#3B404B" cx="1736.979" cy="1185.611" r="43.249"/>
		<path fill-rule="evenodd" clip-rule="evenodd" fill="#FFFFFF" d="M1758.311,1205.119l-48.814-0.008l11.215-30.659l49.768-0.119
			L1758.311,1205.119z M1707.873,1204.572l-2.395-38.468h10.328l0.861,3.848h43.553l1.178,2.785h-41.779L1707.873,1204.572z"/>
	</g>
	<g>
		<circle fill="#3B404B" cx="1850.466" cy="1185.611" r="43.249"/>
		<g>
			<path fill="#FFFFFF" d="M1818.932,1185.043l-5.947,5.077l7.811-0.311c-0.438-0.722-0.82-1.489-1.141-2.302
				C1819.344,1186.696,1819.098,1185.872,1818.932,1185.043L1818.932,1185.043z M1818.932,1185.043"/>
			<path fill="#FFFFFF" d="M1845.934,1177.222c0.092,0.239,0.166,0.484,0.248,0.724c0.365-1.097,0.84-2.147,1.406-3.135l-2.785,0.11
				C1845.23,1175.642,1845.615,1176.411,1845.934,1177.222L1845.934,1177.222z M1845.934,1177.222"/>
			<path fill="#FFFFFF" d="M1843.461,1173.111l2.611-7.371l-6.604,4.174c0.738,0.412,1.451,0.877,2.127,1.427
				C1842.281,1171.888,1842.9,1172.482,1843.461,1173.111L1843.461,1173.111z M1843.461,1173.111"/>
			<path fill="#FFFFFF" d="M1837.402,1169.019l-1.416-7.691l-3.645,6.924c0.85-0.016,1.709,0.038,2.566,0.167
				C1835.77,1168.544,1836.607,1168.745,1837.402,1169.019L1837.402,1169.019z M1837.402,1169.019"/>
			<path fill="#FFFFFF" d="M1827.646,1169.229c0.814-0.317,1.635-0.564,2.467-0.729l-5.08-5.947l0.313,7.811
				C1826.066,1169.934,1826.842,1169.549,1827.646,1169.229L1827.646,1169.229z M1827.646,1169.229"/>
			<path fill="#FFFFFF" d="M1821.773,1173.561c0.549-0.687,1.133-1.308,1.762-1.864l-7.361-2.612l4.174,6.604
				C1820.75,1174.959,1821.225,1174.235,1821.773,1173.561L1821.773,1173.561z M1821.773,1173.561"/>
			<path fill="#FFFFFF" d="M1818.84,1180.245c0.137-0.857,0.34-1.688,0.604-2.492l-7.682,1.424l6.914,3.637
				C1818.658,1181.975,1818.715,1181.113,1818.84,1180.245L1818.84,1180.245z M1818.84,1180.245"/>
			<path fill="#FFFFFF" d="M1828.404,1189.901c1.801,0,1.719,0.42,1.719,0c0-5.508,4.467-9.974,9.965-9.974
				c1.379,0,2.686,0.3,3.881,0.802c-0.701-4.796-4.447-8.77-9.48-9.526c-6.166-0.941-11.93,3.307-12.861,9.463
				c-0.564,3.754,0.795,7.362,3.326,9.811C1826.037,1190.11,1827.201,1189.901,1828.404,1189.901L1828.404,1189.901z
				 M1828.404,1189.901"/>
			<path fill="#FFFFFF" d="M1875.869,1185.699c-0.219-8.119-6.879-14.635-15.063-14.635c-7.719,0-14.086,5.812-14.963,13.292
				c-1.316-0.822-2.867-1.298-4.531-1.298c-4.705,0-8.523,3.819-8.523,8.522c0,0.357,0.072,0-1.461,0
				c-5.061,0-9.152,4.103-9.152,9.163c0,4.604,3.398,8.413,7.828,9.052c0.346,0.064,0.705,0.102,1.068,0.102h43.199
				c0.154,0,0.201-0.019,0.209-0.028c0.191,0.01,0.375,0.028,0.576,0.028c6.695,0,12.113-5.427,12.113-12.113
				C1887.17,1191.362,1882.191,1186.13,1875.869,1185.699L1875.869,1185.699z M1875.869,1185.699"/>
		</g>
	</g>
	<circle fill="#3B404B" cx="1966.473" cy="1185.611" r="43.249"/>
	<path fill="#FFFFFF" d="M1987.669,1180.83c-0.219-8.119-6.879-14.635-15.063-14.635c-7.719,0-14.086,5.812-14.963,13.292
		c-1.316-0.822-2.867-1.298-4.531-1.298c-4.705,0-8.523,3.819-8.523,8.522c0,0.357,0.072,0-1.461,0
		c-5.061,0-9.152,4.103-9.152,9.163c0,4.604,3.398,8.413,7.828,9.052c0.346,0.064,0.705,0.102,1.068,0.102h43.199
		c0.154,0,0.201-0.019,0.209-0.028c0.191,0.01,0.375,0.028,0.576,0.028c6.695,0,12.113-5.427,12.113-12.113
		C1998.97,1186.493,1993.991,1181.261,1987.669,1180.83L1987.669,1180.83z M1987.669,1180.83"/>
	<g>
		<circle fill="#3B404B" cx="2081.409" cy="1185.611" r="43.25"/>
		<g>
			<g>
				<g>
					<path fill="#FFFFFF" d="M2092.578,1209.773c2.307,0.027,4.198-1.823,4.224-4.131c0.026-2.307-4.054-10.707-4.054-10.707
						s-4.274,8.307-4.301,10.614C2088.421,1207.856,2090.271,1209.747,2092.578,1209.773L2092.578,1209.773z M2092.578,1209.773"/>
					<path fill="#FFFFFF" d="M2070.147,1210.414c2.306,0.026,4.197-1.824,4.224-4.13c0.026-2.308-4.055-10.708-4.055-10.708
						s-4.274,8.308-4.3,10.613C2065.989,1208.496,2067.84,1210.389,2070.147,1210.414L2070.147,1210.414z M2070.147,1210.414"/>
				</g>
				<path fill="#FFFFFF" d="M2081.362,1216.183c2.307,0.026,4.198-1.824,4.225-4.131c0.025-2.307-4.055-10.708-4.055-10.708
					s-4.275,8.308-4.301,10.614C2077.205,1214.265,2079.056,1216.156,2081.362,1216.183L2081.362,1216.183z M2081.362,1216.183"/>
			</g>
			<path fill="#FFFFFF" d="M2101.296,1168.772c-0.205-7.618-6.453-13.731-14.132-13.731c-7.242,0-13.216,5.453-14.039,12.472
				c-1.234-0.771-2.689-1.218-4.252-1.218c-4.413,0-7.996,3.583-7.996,7.996c0,0.336,0.067,0-1.371,0
				c-4.748,0-8.587,3.849-8.587,8.598c0,4.319,3.188,7.894,7.345,8.492c0.324,0.061,0.661,0.096,1.003,0.096h40.531
				c0.145,0,0.188-0.017,0.195-0.026c0.18,0.01,0.353,0.026,0.542,0.026c6.281,0,11.364-5.092,11.364-11.365
				C2111.899,1174.086,2107.229,1169.177,2101.296,1168.772L2101.296,1168.772z M2101.296,1168.772"/>
		</g>
	</g>
</g>
</svg>
